<?xml version="1.0" encoding="UTF-8" standalone="no"?>
<!-- Created with Inkscape (http://www.inkscape.org/) -->

<svg
   width="180"
   height="180"
   viewBox="0 0 180 180"
   version="1.1"
   id="svg1"
   xml:space="preserve"
   inkscape:version="1.4.4 (dcaf3e7d9e, 2026-05-05)"
   sodipodi:docname="seego_icon.svg"
   xmlns:inkscape="http://www.inkscape.org/namespaces/inkscape"
   xmlns:sodipodi="http://sodipodi.sourceforge.net/DTD/sodipodi-0.dtd"
   xmlns:xlink="http://www.w3.org/1999/xlink"
   xmlns="http://www.w3.org/2000/svg"
   xmlns:svg="http://www.w3.org/2000/svg"><sodipodi:namedview
     id="namedview1"
     pagecolor="#505050"
     bordercolor="#eeeeee"
     borderopacity="1"
     inkscape:showpageshadow="0"
     inkscape:pageopacity="0"
     inkscape:pagecheckerboard="0"
     inkscape:deskcolor="#505050"
     inkscape:document-units="px"
     showguides="false"
     inkscape:zoom="2.4666667"
     inkscape:cx="66.68919"
     inkscape:cy="69.72973"
     inkscape:window-width="1920"
     inkscape:window-height="1080"
     inkscape:window-x="0"
     inkscape:window-y="0"
     inkscape:window-maximized="1"
     inkscape:current-layer="layer1"><sodipodi:guide
       position="90,90"
       orientation="1,0"
       id="guide22"
       inkscape:locked="false" /><sodipodi:guide
       position="90,90"
       orientation="0,-1"
       id="guide23"
       inkscape:locked="false" /><sodipodi:guide
       position="44.939204,94.676876"
       orientation="1,0"
       id="guide2"
       inkscape:locked="false" /><sodipodi:guide
       position="44.939204,93.920479"
       orientation="0,-1"
       id="guide3"
       inkscape:locked="false" /><sodipodi:guide
       position="44.939204,79.26017"
       orientation="-0.34202014,0.93969262"
       id="guide4"
       inkscape:locked="false"
       inkscape:label=""
       inkscape:color="rgb(0,134,229)" /><sodipodi:guide
       position="45.65639,91.591327"
       orientation="0.70710678,0.70710678"
       id="guide5"
       inkscape:locked="false"
       inkscape:label=""
       inkscape:color="rgb(0,134,229)" /><sodipodi:guide
       position="45.656394,91.591327"
       orientation="0,-1"
       id="guide6"
       inkscape:locked="false" /><sodipodi:guide
       position="45.55652,90.482574"
       orientation="0.9961947,-0.087155743"
       id="guide7"
       inkscape:locked="false"
       inkscape:label=""
       inkscape:color="rgb(0,134,229)" /></sodipodi:namedview><defs
     id="defs1"><linearGradient
       id="linearGradient13"
       inkscape:collect="always"><stop
         style="stop-color:#dfa406;stop-opacity:1;"
         offset="0"
         id="stop13" /><stop
         style="stop-color:#e0a306;stop-opacity:1;"
         offset="0.64999998"
         id="stop15" /><stop
         style="stop-color:#f9b806;stop-opacity:1;"
         offset="1"
         id="stop14" /></linearGradient><linearGradient
       id="linearGradient9"
       inkscape:collect="always"><stop
         style="stop-color:#16002e;stop-opacity:1;"
         offset="0"
         id="stop11" /><stop
         style="stop-color:#180033;stop-opacity:1;"
         offset="0.49913311"
         id="stop9" /><stop
         style="stop-color:#2b004d;stop-opacity:1;"
         offset="0.85000002"
         id="stop10" /><stop
         style="stop-color:#3a0066;stop-opacity:1;"
         offset="1"
         id="stop77" /></linearGradient><inkscape:path-effect
       effect="fillet_chamfer"
       id="path-effect7"
       is_visible="true"
       lpeversion="1"
       nodesatellites_param="F,0,0,1,0,1,0,1 @ F,0,0,1,0,1,0,1 @ F,0,0,1,0,1,0,1"
       radius="1"
       unit="px"
       method="auto"
       mode="F"
       chamfer_steps="1"
       flexible="false"
       use_knot_distance="true"
       apply_no_radius="true"
       apply_with_radius="true"
       only_selected="false"
       hide_knots="false" /><inkscape:path-effect
       effect="fillet_chamfer"
       id="path-effect22"
       is_visible="true"
       lpeversion="1"
       nodesatellites_param="F,0,0,1,0,32,0,1 @ F,0,0,1,0,32,0,1 @ F,0,0,1,0,32,0,1 @ F,0,0,1,0,32,0,1"
       radius="32"
       unit="px"
       method="auto"
       mode="F"
       chamfer_steps="1"
       flexible="false"
       use_knot_distance="true"
       apply_no_radius="true"
       apply_with_radius="true"
       only_selected="false"
       hide_knots="false" /><clipPath
       clipPathUnits="userSpaceOnUse"
       id="clipPath3542"><rect
         style="fill:#0000ff;fill-rule:evenodd;stroke:#000000;stroke-width:1px;stroke-linecap:butt;stroke-linejoin:miter;stroke-opacity:1"
         id="rect3544"
         width="1093.424"
         height="1518.2074"
         x="-1174.7097"
         y="-295.40738" /></clipPath><linearGradient
       inkscape:collect="always"
       xlink:href="#linearGradient9"
       id="linearGradient10"
       x1="89.999977"
       y1="180"
       x2="89.999977"
       y2="3.1556378e-05"
       gradientUnits="userSpaceOnUse"
       spreadMethod="pad" /><linearGradient
       inkscape:collect="always"
       xlink:href="#linearGradient13"
       id="linearGradient14"
       x1="49.467354"
       y1="131.00665"
       x2="38.577045"
       y2="69.244659"
       gradientUnits="userSpaceOnUse" /></defs><g
     inkscape:label="Layer 1"
     inkscape:groupmode="layer"
     id="layer1"><path
       style="display:inline;opacity:1;fill:url(#linearGradient10);fill-opacity:1;stroke:none;stroke-width:0.2;stroke-linecap:round;stroke-dasharray:none;stroke-opacity:1;paint-order:fill markers stroke;fill-rule:nonzero"
       id="rect21"
       width="180"
       height="180"
       x="0"
       y="0"
       inkscape:path-effect="#path-effect22"
       sodipodi:type="rect"
       d="m 32,0 h 116 a 32,32 45 0 1 32,32 v 116 a 32,32 135 0 1 -32,32 H 32 A 32,32 45 0 1 0,148 V 32 A 32,32 135 0 1 32,0 Z" /><path
       sodipodi:type="star"
       style="display:inline;opacity:1;fill:url(#linearGradient14);fill-opacity:1;stroke:#b38306;stroke-width:2.70921;stroke-linecap:round;stroke-dasharray:none;stroke-opacity:1;paint-order:fill markers stroke"
       id="path111"
       inkscape:flatsided="false"
       sodipodi:sides="5"
       sodipodi:cx="46.880878"
       sodipodi:cy="99.695946"
       sodipodi:r1="31.183498"
       sodipodi:r2="15.591748"
       sodipodi:arg1="-0.66893705"
       sodipodi:arg2="-0.040618515"
       inkscape:rounded="0"
       inkscape:randomized="0"
       d="M 71.34375,80.357422 62.459766,99.062806 72.83235,116.98559 52.297171,114.3167 38.456899,129.72006 34.649443,109.36521 15.723101,100.96223 33.905143,91.051126 36.048293,70.45444 51.092868,84.683892 Z"
       inkscape:transform-center-x="1.9585319"
       inkscape:transform-center-y="0.28343658"
       transform="matrix(0.75236901,0,0,0.72434354,17.020185,32.96646)" /><path
       style="font-size:90.6667px;font-family:'Noto Sans';-inkscape-font-specification:'Noto Sans';display:inline;fill:none;stroke:#00add8;stroke-width:8;stroke-linecap:round;paint-order:fill markers stroke"
       d="m 98.725673,96.134068 h 22.394677 v 31.733342 q -5.25867,1.72267 -10.60801,2.53867 -5.34933,0.816 -12.149333,0.816 -10.064004,0 -16.954674,-3.98933 -6.890669,-4.08001 -10.517337,-11.51467 -3.536002,-7.52534 -3.536002,-17.770678 0,-10.154671 3.989335,-17.589341 3.989335,-7.434669 11.424005,-11.514671 7.525336,-4.170668 18.133336,-4.170668 5.44001,0 10.24534,0.997334 4.896,0.997333 9.06667,2.810667 l -3.08267,7.072003 q -3.44533,-1.541334 -7.79733,-2.629334 -4.26134,-1.088001 -8.88534,-1.088001 -11.605337,0 -18.13334,6.981337 -6.437336,6.981336 -6.437336,19.130674 0,7.706668 2.448001,13.690668 2.538668,5.89334 7.888003,9.24801 5.349336,3.264 14.053342,3.264 4.26133,0 7.25333,-0.45333 2.992,-0.45334 5.44001,-1.08801 V 103.3874 H 98.725673 Z"
       id="text2"
       aria-label="G" /><path
       style="font-size:90.6667px;font-family:'Noto Sans';-inkscape-font-specification:'Noto Sans';baseline-shift:baseline;display:inline;overflow:visible;opacity:1;vector-effect:none;fill:#dfa406;stroke-linecap:round;paint-order:fill markers stroke;enable-background:accumulate;stop-color:#000000;stop-opacity:1;fill-opacity:1"
       d="m 72.369115,46.180289 c -4.48759,0 -8.636788,0.740564 -12.347656,2.310547 l -0.01367,0.0059 -0.01367,0.0059 c -3.651284,1.575064 -6.720487,3.963136 -8.916015,7.058594 -2.273453,3.145304 -3.38086,7.005786 -3.38086,11.121094 0,5.755846 1.703914,10.911658 5.28125,14.644531 l 0.01563,0.01563 0.01563,0.01563 c 3.423162,3.495995 8.128572,6.175317 14.00586,8.306641 l 0.01563,0.0039 0.01367,0.0059 c 3.786908,1.339983 6.656617,2.612193 8.476563,3.673828 l 0.05664,0.0332 0.05664,0.03125 c 1.84657,0.998146 2.836693,1.969177 3.22461,2.589843 0.443496,0.709596 0.751953,1.684388 0.751953,3.228516 0,2.172107 -0.525431,3.213397 -2.128907,4.425777 l -0.01953,0.0137 -0.01953,0.0156 c -1.397225,1.08285 -4.110797,1.97266 -8.429688,1.97266 -3.13571,0 -6.163603,-0.35613 -9.111328,-1.06445 l -0.0078,-0.002 c -0.0026,-6.3e-4 -0.0052,-10e-4 -0.0078,-0.002 -3.029743,-0.74402 -5.507062,-1.56174 -7.380859,-2.39453 l -5.625,-2.500004 v 16.490244 l 2.296875,1.08007 c 2.49086,1.17217 5.382492,1.99982 8.714844,2.58789 3.347039,0.59065 6.933097,0.87695 10.759765,0.87695 7.675992,0 14.261985,-1.76589 19.298828,-5.63476 5.086248,-3.90689 7.820269,-9.87923 7.820269,-16.589879 0,-3.91993 -0.818578,-7.512609 -2.673828,-10.511719 -1.712117,-2.862845 -4.238164,-5.219636 -7.333985,-7.054688 -2.898227,-1.812225 -6.322235,-3.416655 -10.300781,-4.86914 l 0.04687,0.01758 c -3.391091,-1.286277 -6.025089,-2.472086 -7.808594,-3.46875 -1.647699,-0.920773 -2.56375,-1.826219 -3.001953,-2.527344 -0.430263,-0.688422 -0.751953,-1.699868 -0.751953,-3.320312 0,-1.876351 0.417685,-2.716678 1.625,-3.710938 l 0.02734,-0.02148 0.02539,-0.02344 c 1.068098,-0.911025 3.089835,-1.671875 6.5625,-1.671875 2.528833,0 4.907855,0.292925 7.167968,0.871094 l 0.01172,0.0039 0.0098,0.002 c 2.472791,0.618198 4.713791,1.367894 6.726562,2.238282 L 90,66.145177 95.257812,51.68424 91.871093,50.160802 C 89.173962,48.94706 86.226865,47.992065 83.037084,47.275992 79.740523,46.535947 76.183927,46.180289 72.369115,46.180289 Z M 60.486303,56.885367 c -0.0097,0.008 -0.01573,0.01933 -0.02539,0.02734 -0.0083,0.0071 -0.01903,0.01049 -0.02734,0.01758 z m -2.382813,2.773437 c -1.362513,2.092583 -2.15625,4.559295 -2.15625,7.113282 0,2.731556 0.585679,5.347634 1.96875,7.560546 0.546138,0.873821 1.269934,1.613893 2.011719,2.339844 -0.350457,-0.302994 -0.878239,-0.587716 -1.179688,-0.894531 -1.976707,-2.068558 -3.050781,-4.825481 -3.050781,-9.095703 0,-2.766972 0.644276,-4.760491 1.867188,-6.447266 l 0.01367,-0.01758 0.01367,-0.01953 c 0.143288,-0.202579 0.357319,-0.346755 0.511719,-0.539063 z m 21.335938,26.714844 0.113281,0.06445 c -0.01937,-0.0113 -0.04695,-0.02191 -0.06641,-0.0332 -0.01728,-0.0094 -0.02956,-0.02189 -0.04687,-0.03125 z m 1.755859,1.171875 c 0.113342,0.06908 0.268679,0.135866 0.378906,0.205078 l 0.04687,0.02734 0.04687,0.02734 c 0.295176,0.174422 0.473579,0.371452 0.742188,0.550781 -0.373721,-0.290738 -0.80851,-0.541798 -1.214844,-0.810547 z m 1.90625,1.324219 c 1.348619,1.012957 2.449581,2.075981 3.146484,3.248047 l 0.01953,0.03516 0.02148,0.0332 c 0.912548,1.468001 1.482428,3.483041 1.482428,6.320312 0,2.661299 -0.501564,4.730039 -1.460938,6.501949 0.829912,-1.78965 1.300782,-3.7554 1.300782,-5.77734 0,-2.686985 -0.598914,-5.27701 -1.96875,-7.46875 -0.683235,-1.093174 -1.551493,-2.036054 -2.541016,-2.892578 z m -0.757812,21.138668 -0.03711,0.0293 c 0.0071,-0.005 0.01248,-0.0122 0.01953,-0.0176 0.0056,-0.004 0.01201,-0.007 0.01758,-0.0117 z"
       id="text1" /><path
       id="path107"
       style="font-size:90.6667px;font-family:'Noto Sans';-inkscape-font-specification:'Noto Sans';display:inline;fill:none;stroke:#00add8;stroke-width:8;stroke-linecap:round;paint-order:fill markers stroke"
       d="m 68.033203,90.03125 c 3.300167,1.208699 5.830317,2.349265 7.488281,3.316406 l 0.05664,0.0332 0.05664,0.03125 c 0.159271,0.08609 0.312293,0.172331 0.458984,0.257813 0.634887,-6.032354 2.668871,-10.939947 6.103516,-14.72461 -2.038593,-1.024479 -4.280685,-1.979208 -6.734375,-2.875 -0.342023,-0.129906 -0.675502,-0.258965 -1.001953,-0.386718 -1.171809,1.428317 -2.211655,2.986243 -3.117188,4.673828 -1.562197,2.911367 -2.665969,6.136813 -3.310547,9.673828 z" /></g></svg>
