<?xml version="1.0" encoding="UTF-8" standalone="no"?>
<!-- Created with Inkscape (http://www.inkscape.org/) -->

<svg
   width="180"
   height="180"
   viewBox="0 0 180 180"
   version="1.1"
   id="svg1"
   xml:space="preserve"
   inkscape:version="1.4.4 (dcaf3e7d9e, 2026-05-05)"
   sodipodi:docname="seego_nobg.svg"
   xmlns:inkscape="http://www.inkscape.org/namespaces/inkscape"
   xmlns:sodipodi="http://sodipodi.sourceforge.net/DTD/sodipodi-0.dtd"
   xmlns="http://www.w3.org/2000/svg"
   xmlns:svg="http://www.w3.org/2000/svg"><sodipodi:namedview
     id="namedview1"
     pagecolor="#505050"
     bordercolor="#eeeeee"
     borderopacity="1"
     inkscape:showpageshadow="0"
     inkscape:pageopacity="0"
     inkscape:pagecheckerboard="0"
     inkscape:deskcolor="#505050"
     inkscape:document-units="px"
     showguides="false"
     inkscape:zoom="2.4666667"
     inkscape:cx="124.05405"
     inkscape:cy="88.378377"
     inkscape:window-width="1920"
     inkscape:window-height="1080"
     inkscape:window-x="0"
     inkscape:window-y="0"
     inkscape:window-maximized="1"
     inkscape:current-layer="layer1"><sodipodi:guide
       position="90,90"
       orientation="0,-1"
       id="guide1"
       inkscape:locked="false" /><sodipodi:guide
       position="90,90"
       orientation="1,0"
       id="guide2"
       inkscape:locked="false" /><sodipodi:guide
       position="15,180"
       orientation="-1,0"
       id="guide3"
       inkscape:locked="false"
       inkscape:label=""
       inkscape:color="rgb(0,134,229)" /><sodipodi:guide
       position="165,180"
       orientation="-1,0"
       id="guide4"
       inkscape:locked="false"
       inkscape:label=""
       inkscape:color="rgb(0,134,229)" /><sodipodi:guide
       position="125.73189,40.867396"
       orientation="1,0"
       id="guide16"
       inkscape:locked="false" /><sodipodi:guide
       position="125.73189,40.867396"
       orientation="0,-1"
       id="guide17"
       inkscape:locked="false" /><sodipodi:guide
       position="120.92823,30.853839"
       orientation="0,-1"
       id="guide18"
       inkscape:locked="false" /><sodipodi:guide
       position="118.97578,21.484707"
       orientation="0,-1"
       id="guide19"
       inkscape:locked="false" /><sodipodi:guide
       position="137.48123,26.857404"
       orientation="0,-1"
       id="guide20"
       inkscape:locked="false" /></sodipodi:namedview><defs
     id="defs1"><clipPath
       clipPathUnits="userSpaceOnUse"
       id="clipPath3542"><rect
         style="fill:#0000ff;fill-rule:evenodd;stroke:#000000;stroke-width:1px;stroke-linecap:butt;stroke-linejoin:miter;stroke-opacity:1"
         id="rect3544"
         width="1093.424"
         height="1518.2074"
         x="-1174.7097"
         y="-295.40738" /></clipPath></defs><g
     inkscape:label="Layer 1"
     inkscape:groupmode="layer"
     id="layer1"><path
       style="font-size:90.6667px;font-family:'Noto Sans';-inkscape-font-specification:'Noto Sans';fill:none;stroke:#dfa406;stroke-width:8;stroke-linecap:round;paint-order:fill markers stroke"
       d="m 60.162799,61.829472 q 0,8.613337 -6.256003,13.418672 -6.256002,4.805335 -16.864006,4.805335 -5.440002,0 -10.064004,-0.816 -4.624002,-0.816 -7.70667,-2.266667 v -7.797337 q 3.264001,1.450667 8.069337,2.629335 4.896001,1.178667 10.064003,1.178667 7.253337,0 10.880005,-2.810668 3.717335,-2.810668 3.717335,-7.616003 0,-3.173335 -1.360001,-5.349336 -1.360001,-2.176 -4.714669,-3.989334 Q 42.664125,51.312135 36.77079,49.226801 28.52012,46.2348 24.258785,41.882798 20.088116,37.530796 20.088116,30.00546 q 0,-5.168002 2.629335,-8.79467 2.629334,-3.717335 7.253336,-5.712003 4.714668,-1.994667 10.789337,-1.994667 5.349336,0 9.792004,0.997334 4.442669,0.997333 8.069337,2.629334 l -2.538668,6.981336 q -3.354668,-1.450667 -7.344003,-2.448001 -3.898668,-0.997334 -8.160003,-0.997334 -6.074669,0 -9.157337,2.629335 -3.082668,2.538668 -3.082668,6.800003 0,3.264001 1.360001,5.440002 1.36,2.176001 4.442668,3.898668 3.082668,1.722667 8.341337,3.717335 5.712002,2.085334 9.61067,4.533335 3.989335,2.357334 5.984003,5.712002 2.085334,3.354668 2.085334,8.432003 z M 109.3948,79.146812 H 73.218785 V 14.410787 H 109.3948 v 7.162669 H 81.378789 V 41.792131 H 107.7628 v 7.072003 H 81.378789 V 71.984143 H 109.3948 Z m 50.41066,0 H 123.62945 V 14.410787 h 36.17601 v 7.162669 h -28.01601 v 20.218675 h 26.38401 v 7.072003 h -26.38401 v 23.120009 h 28.01601 z"
       id="text1"
       aria-label="SEE" /><path
       style="font-size:90.6667px;font-family:'Noto Sans';-inkscape-font-specification:'Noto Sans';fill:none;stroke:#00add8;stroke-width:8;stroke-linecap:round;paint-order:fill markers stroke"
       d="m 61.193092,133.00116 h 22.394676 v 31.73335 q -5.258669,1.72267 -10.608005,2.53867 -5.349335,0.816 -12.149338,0.816 -10.064004,0 -16.954673,-3.98934 -6.890669,-4.08 -10.517338,-11.51467 -3.536001,-7.52533 -3.536001,-17.77067 0,-10.15467 3.989335,-17.58934 3.989335,-7.43467 11.424004,-11.51467 7.525337,-4.17067 18.133341,-4.17067 5.440002,0 10.245337,0.99733 4.896002,0.99734 9.06667,2.81067 l -3.082667,7.072 q -3.445335,-1.54133 -7.797337,-2.62933 -4.261335,-1.088 -8.885337,-1.088 -11.605337,0 -18.13334,6.98133 -6.437336,6.98134 -6.437336,19.13068 0,7.70667 2.448001,13.69067 2.538668,5.89334 7.888003,9.248 5.349336,3.264 14.053339,3.264 4.261335,0 7.253336,-0.45333 2.992001,-0.45333 5.440002,-1.088 V 140.2545 H 61.193092 Z m 94.384098,1.72267 q 0,10.064 -3.44534,17.58934 -3.35467,7.43467 -9.97334,11.60534 -6.61866,4.17067 -16.41067,4.17067 -10.064,0 -16.77334,-4.17067 -6.61867,-4.17067 -9.882669,-11.69601 -3.264001,-7.52533 -3.264001,-17.58934 0,-9.97333 3.264001,-17.408 3.263999,-7.43467 9.882669,-11.60534 6.70934,-4.17067 16.86401,-4.17067 9.70134,0 16.32,4.17067 6.61867,4.08 9.97334,11.60534 3.44534,7.43467 3.44534,17.49867 z m -51.13602,0 q 0,12.24001 5.168,19.31201 5.168,6.98133 16.13867,6.98133 11.06134,0 16.13867,-6.98133 5.07734,-7.072 5.07734,-19.31201 0,-12.24 -5.07734,-19.13067 -5.07733,-6.98134 -16.048,-6.98134 -10.97067,0 -16.22934,6.98134 -5.168,6.89067 -5.168,19.13067 z"
       id="text2"
       aria-label="GO" /><g
       style="clip-rule:evenodd;fill-rule:evenodd;stroke-linejoin:round;stroke-miterlimit:2"
       id="g4"
       transform="matrix(0.09984628,0,0,0.10380906,109.82772,133.41409)"><path
         d="M 38.887587,199.19886 C 28.424644,195.78006 23.529707,163.69699 19.135244,100.95103 20.012763,95.244504 23.375295,88.244567 17.854907,85.810916 1.6585769,78.670575 -7.9260508,64.269702 -4.5510621,46.228988 -1.9036158,32.074883 9.266927,22.540247 23.113635,19.891737 c 9.029398,-1.703981 18.89164,-0.478646 27.377509,2.963353 6.128801,0.59033 5.759711,-0.285061 12.010833,-4.164224 28.168871,-17.4769743 59.754213,-22.0241149 92.068163,-24.8608924 35.71659,-3.1356656 72.89678,-0.7700889 104.54381,17.6907704 2.49322,1.454021 8.49013,7.698761 11.26096,6.5298 6.22453,-2.62511 12.35014,-5.085352 19.16819,-5.585272 16.81963,-1.23278 33.81264,6.22134 38.56401,23.631304 4.46843,16.375024 -2.25071,33.090419 -17.7631,40.743443 -14.59947,7.299736 -7.25275,103.074611 -26.07254,117.972601"
         style="display:inline;fill:#020203;fill-rule:nonzero;stroke-width:1.06366"
         id="path1"
         sodipodi:nodetypes="ccsccccscccccc" /><g
         id="blue"
         style="display:inline"
         transform="matrix(1.0636586,0,0,1.0636586,-10.320346,-7.3315416)"><path
           id="path2"
           style="fill:#6cd1ef;fill-rule:nonzero;opacity:1"
           d="m 179.56792,3.8385389 c -25.14807,-0.7180312 -50.66581,3.1528083 -72.12256,9.2188081 -34.41399,9.73 -58.83585,29.54317 -69.88385,64.42517 -9.968,31.470003 3.24675,97.937443 9.633045,120.049803 44.426885,44.26934 173.912675,44.26934 229.766315,-3.24326 -0.407,-35.84 21.7716,-104.813468 4.8916,-137.556468 C 262.38185,18.966342 221.48137,5.0352577 179.56792,3.8385389 Z m 38.16385,19.3960071 c 45.46109,1.560249 57.8978,74.850421 6.80687,83.364804 -23.786,4.096 -49.14138,-10.421444 -52.23138,-35.673444 -2.786,-22.774 13.60202,-43.164795 35.91002,-47.006795 3.31531,-0.574 6.48375,-0.788581 9.51449,-0.684565 z m -111.0276,4.594192 c 20.92263,-0.935949 41.25048,13.672326 45.09173,34.958451 3.80963,21.114346 -10.36186,41.770311 -30.66117,47.493591 4.37164,-1.11268 9.79039,-2.48309 -1.01346,0.27383 -0.303,0.0772 -0.63936,0.15974 -0.90759,0.22819 h -0.0151 c -22.88168,5.1949 -50.314535,-9.6287 -53.138958,-34.426012 -2.449,-21.498 10.468756,-41.464708 31.689756,-47.143708 2.966622,-0.793875 5.965862,-1.250635 8.954812,-1.384342 z m 56.86005,66.859178 c 1.55762,-0.008 3.15256,0.03485 4.79506,0.06085 5.532,0.088 11.51607,2.410972 13.17507,8.442964 1.966,7.145 5.87534,5.97993 12.01034,11.30293 12.524,10.866 4.52823,23.95016 -9.90777,23.70116 0.698,6.109 3.41622,17.73254 -0.33278,22.94054 -4.636,6.44 -15.89716,5.04344 -18.21216,-2.61656 -1.36152,2.60973 -3.48561,4.89904 -6.15643,6.19151 h 0.0151 c -0.004,0.002 -0.0255,0.013 -0.0302,0.0152 -0.0718,0.0331 -0.20351,0.0993 -0.46892,0.21297 -1.83057,0.7475 -1.46223,0.57728 -0.77144,0.28904 -16.7905,6.1358 -10.81536,-20.7315 -10.81536,-27.65642 0,0.133 -9.24767,-0.40399 -10.13467,-0.71499 -3.488,-1.146 -5.6901,-4.75308 -6.5951,-8.09308 -2.26,-8.347 4.02199,-14.67228 10.89099,-18.27028 5.396,-2.698 3.60909,-9.09721 9.22709,-12.611207 4.296,-2.6865 8.63833,-3.170731 13.31121,-3.194637 z m -5.88416,70.540614 c 0.25139,-0.0919 0.50975,-0.1822 0.77144,-0.28904 0.14718,-0.0631 0.29465,-0.144 0.43867,-0.21297 -0.22483,0.0892 -0.77999,0.32254 -1.21011,0.50201 z m 1.24036,-0.50201 0.0151,-0.0152 c -0.0102,0.005 -0.0201,0.0103 -0.0303,0.0152 z"
           sodipodi:nodetypes="scccccsscccssccscccsssccscscccscccccccscccccccccc" /><path
           d="M 25.639,81.753 C 10.866,74.561 4.248,55.058 14.467,41.128 c 9.588,-13.07 29.109,-13.712 42.761,-7.344 -3.972,4.722 -7.835,9.701 -11.198,14.875 -3.657,2.033 -8.552,-2.017 -13.019,2.053 -8.558,7.802 4.387,12.593 2.818,17.363 -0.815,2.479 -1.618,4.963 -2.446,7.438 -2.092,6.6 -1.197,9.364 -7.744,6.24 -10.53,-5.126 2.451,1.17 0,0"
           style="fill:#6cd1ef;fill-rule:nonzero"
           id="path3" /><path
           d="m 294.231,73.73 c -1.022,-2.961 -5.811,-10.524 -5.349,-13.761 0.806,-5.638 10.654,-7.84 4.279,-15.825 -4.235,-5.305 -12.504,0.493 -14.39,-2.082 C 276.583,39.074 267.21,31.05 267.21,27.99 c 0,-3.702 20.073,-4.908 22.469,-4.607 9.4,1.179 18.258,5.977 22.332,14.849 3.594,7.825 3.595,17.86 -0.665,25.421 -2.193,3.893 -14.661,17.71 -17.115,10.077 -0.558,-1.616 0.501,1.56 0,0"
           style="fill:#6cd1ef;fill-rule:nonzero"
           id="path4" /></g><path
         d="m 20.480934,209.2462 c -9.902665,-3.65686 4.08764,-14.07327 5.718229,-18.81506 1.694408,-4.929 -6.834007,4.53225 -6.307496,3.78981 -1.966704,2.77084 -5.539537,7.10631 -5.633139,10.75785 0.16274,-3.90682 -6.1245466,-4.9875 -3.226077,-12.09274 2.819759,-6.91378 9.195332,-12.15549 15.510274,-15.78469 6.502145,-3.73663 15.762357,-4.1621 21.511431,1.38382 3.321806,3.2048 10.648287,8.22208 10.648287,11.5609 0,-0.10743 -11.832139,5.6842 -12.635201,6.26814 -7.3786,5.35978 -15.175217,16.64945 -25.586308,12.93197 -3.852571,-1.42212 3.318615,1.18491 0,0"
         style="display:inline;fill:#dcc8bb;fill-rule:nonzero;stroke:#020203;stroke-width:1.96447;stroke-dasharray:none;stroke-opacity:1"
         id="path5" /><path
         d="m 289.09307,205.73505 c -6.8723,-6.62765 -11.02801,-16.64519 -20.45628,-19.73086 -1.29766,-0.4244 13.45528,-12.44162 16.01232,-13.36062 14.80612,-5.32042 32.56391,20.84665 20.08825,32.61709 -0.8488,-4.08338 -2.54108,-7.87001 -4.45779,-11.55877 -1.16364,-2.24007 -8.2976,-8.51991 -5.43423,-3.6558 2.77189,4.70882 7.40306,10.36854 7.40306,16.16229 0,5.04281 -11.43752,1.0977 -13.15533,-0.47333 -1.6593,-1.59974 2.78466,2.54747 0,0"
         style="display:inline;fill:#dcc8bb;fill-rule:nonzero;stroke:#020203;stroke-width:1.96447;stroke-dasharray:none;stroke-opacity:1"
         id="path6" /><path
         d="m 184.18027,136.92929 c -6.90315,-1.0743 -13.76481,-6.94782 -20.8977,-5.59166 -8.69754,1.65399 -18.4481,7.15523 -27.43601,4.34398 -14.13815,-4.42482 0.29569,-29.36867 12.5416,-23.04841 7.86894,4.1472 18.20877,5.20448 26.22024,0.88921 7.09673,-3.82279 7.10312,-4.83113 14.52958,-0.44886 13.14576,7.7562 13.85841,27.12861 -4.95771,23.85574 -2.66659,-0.41483 4.08976,0.71052 0,0"
         style="fill:#dcc8bb;fill-rule:nonzero;stroke-width:1.06366"
         id="path9" /><path
         d="m 150.28466,165.31408 c -6.23304,-2.99633 -2.84635,-18.70763 -2.11455,-23.48558 0.93495,-6.1054 11.03545,-6.98505 16.1591,-7.803 -0.26592,7.31159 2.37196,39.49896 -14.04455,31.28858 -3.08142,-1.48168 1.89544,0.94878 0,0"
         style="fill:#fef6f1;fill-rule:nonzero;stroke-width:1.06366"
         id="path10" /><path
         d="m 170.47715,164.87692 c -6.07455,-3.97809 -4.01531,-17.57165 -3.73876,-23.175 0.51907,-10.49831 3.13248,-6.49683 11.82789,-3.3835 10.9142,3.90682 7.41902,36.59092 -8.08913,26.5585 -2.55171,-1.67101 3.63559,2.35174 0,0"
         style="fill:#fef6f1;fill-rule:nonzero;stroke-width:1.06366"
         id="path11" /><path
         d="m 87.23204,67.655327 c -3.561129,-3.562193 1.7444,-8.892186 5.385303,-5.437423 3.597294,3.412217 -1.808219,9.013443 -5.385303,5.437423 -2.369832,-2.370895 2.43046,2.429396 0,0"
         style="fill:#fffbfa;fill-rule:nonzero;stroke-width:1.06366"
         id="path12" /><path
         d="m 201.603,67.180935 c -3.66963,-2.935698 0.5648,-7.923193 4.30037,-6.085191 4.88538,2.403869 0.15742,9.773959 -4.30037,6.085191 -1.48168,-1.184916 1.71887,1.422112 0,0"
         style="fill:#fffbfa;fill-rule:nonzero;stroke-width:1.06366"
         id="path13" /><path
         d="m 89.722064,73.640534 c 15.366676,-8.644354 5.224692,-31.518332 -11.60877,-27.585986 -21.967741,5.132153 -8.330574,38.761847 11.60877,27.585986 3.791943,-2.133699 -13.214894,7.407318 0,0 m 7.58495,34.607196 C 52.632289,99.312998 50.593255,35.378606 96.752848,25.956718 122.0775,20.787337 148.34029,38.974836 148.84766,65.592893 c 0.51162,26.840361 -24.75028,48.413487 -51.540646,42.654837 -4.445029,-0.88922 6.340466,1.36255 0,0"
         style="fill:#fef6f1;fill-rule:nonzero;stroke-width:1.06366"
         id="path14" /><path
         d="m 201.95826,74.055361 c 18.66721,-7.466884 5.47039,-33.944538 -11.74386,-27.672143 -16.53457,6.024563 -6.53405,34.914594 11.74386,27.672143 6.51916,-2.608091 -6.28091,2.487897 0,0 m 9.71865,29.747339 C 156.1869,93.563923 166.43419,15.419052 224.53335,20.572478 c 21.03385,1.864594 37.68542,23.042037 37.39611,46.668022 -3.25267,25.420377 -25.3789,39.67234 -50.25255,36.5622 -9.89628,-1.18491 13.74885,1.71887 0,0"
         style="fill:#fef6f1;fill-rule:nonzero;stroke-width:1.06366"
         id="path15" /></g></g></svg>
