<?xml version="1.0" encoding="UTF-8" standalone="no"?>
<!-- Created with Inkscape (http://www.inkscape.org/) -->

<svg
   width="180"
   height="180"
   viewBox="0 0 180 180"
   version="1.1"
   id="svg1"
   xml:space="preserve"
   inkscape:version="1.4.4 (dcaf3e7d9e, 2026-05-05)"
   sodipodi:docname="seego_icon.svg"
   xmlns:inkscape="http://www.inkscape.org/namespaces/inkscape"
   xmlns:sodipodi="http://sodipodi.sourceforge.net/DTD/sodipodi-0.dtd"
   xmlns:xlink="http://www.w3.org/1999/xlink"
   xmlns="http://www.w3.org/2000/svg"
   xmlns:svg="http://www.w3.org/2000/svg"><sodipodi:namedview
     id="namedview1"
     pagecolor="#505050"
     bordercolor="#eeeeee"
     borderopacity="1"
     inkscape:showpageshadow="0"
     inkscape:pageopacity="0"
     inkscape:pagecheckerboard="0"
     inkscape:deskcolor="#505050"
     inkscape:document-units="px"
     showguides="false"
     inkscape:zoom="6.976787"
     inkscape:cx="41.279747"
     inkscape:cy="97.896066"
     inkscape:window-width="1920"
     inkscape:window-height="1080"
     inkscape:window-x="0"
     inkscape:window-y="0"
     inkscape:window-maximized="1"
     inkscape:current-layer="layer1"><sodipodi:guide
       position="90,90"
       orientation="1,0"
       id="guide22"
       inkscape:locked="false" /><sodipodi:guide
       position="90,90"
       orientation="0,-1"
       id="guide23"
       inkscape:locked="false" /><sodipodi:guide
       position="44.939204,94.676876"
       orientation="1,0"
       id="guide2"
       inkscape:locked="false" /><sodipodi:guide
       position="44.939204,93.920479"
       orientation="0,-1"
       id="guide3"
       inkscape:locked="false" /><sodipodi:guide
       position="44.939204,79.26017"
       orientation="-0.34202014,0.93969262"
       id="guide4"
       inkscape:locked="false"
       inkscape:label=""
       inkscape:color="rgb(0,134,229)" /><sodipodi:guide
       position="45.65639,91.591327"
       orientation="0.70710678,0.70710678"
       id="guide5"
       inkscape:locked="false"
       inkscape:label=""
       inkscape:color="rgb(0,134,229)" /><sodipodi:guide
       position="45.656394,91.591327"
       orientation="0,-1"
       id="guide6"
       inkscape:locked="false" /><sodipodi:guide
       position="45.55652,90.482574"
       orientation="0.9961947,-0.087155743"
       id="guide7"
       inkscape:locked="false"
       inkscape:label=""
       inkscape:color="rgb(0,134,229)" /><sodipodi:guide
       position="0,170.39841"
       orientation="0,-1"
       id="guide8"
       inkscape:locked="false" /><sodipodi:guide
       position="180,31.99999"
       orientation="0,-1"
       id="guide57"
       inkscape:locked="false" /><sodipodi:guide
       position="26.548807,101.32256"
       orientation="1,0"
       id="guide107"
       inkscape:locked="false" /><sodipodi:guide
       position="32.619245,87.920479"
       orientation="0,-1"
       id="guide108"
       inkscape:locked="false" /><sodipodi:guide
       position="32.619245,83.920479"
       orientation="0,-1"
       id="guide109"
       inkscape:locked="false" /><sodipodi:guide
       position="32.619245,91.920479"
       orientation="0,-1"
       id="guide110"
       inkscape:locked="false" /></sodipodi:namedview><defs
     id="defs1"><clipPath
       clipPathUnits="userSpaceOnUse"
       id="clipPath103"><rect
         style="fill:#ff0000;stroke:none;stroke-width:3;stroke-linecap:square;stroke-linejoin:miter;paint-order:stroke markers fill;stop-color:#000000"
         id="rect103"
         width="78"
         height="45.033199"
         x="763.61322"
         y="452.82422" /></clipPath><clipPath
       clipPathUnits="userSpaceOnUse"
       id="clipPath99"><path
         id="path99"
         style="stroke-width:0.1;stroke-linecap:square;paint-order:markers fill stroke;stop-color:#000000"
         d="m 438.25066,553.76374 859.87054,0 v 201.39554 l -859.87054,0 z"
         sodipodi:nodetypes="ccccc" /></clipPath><clipPath
       clipPathUnits="userSpaceOnUse"
       id="clipPath52"><path
         id="path52"
         style="stroke-width:0.1;stroke-linecap:square;paint-order:markers fill stroke;stop-color:#000000"
         d="m -880.82767,-187.29769 h 1640.84 v 73.28155 h -1640.84 z" /></clipPath><clipPath
       clipPathUnits="userSpaceOnUse"
       id="clipPath76"><path
         id="path76"
         style="stroke-width:0.0999999;stroke-linecap:square;paint-order:markers fill stroke;stop-color:#000000"
         d="m 1691.1994,-792.32001 h 1634.8919 v 92.82806 H 1691.1994 Z" /></clipPath><clipPath
       clipPathUnits="userSpaceOnUse"
       id="clipPath48"><rect
         style="fill:none;stroke:#000000;stroke-linecap:butt;stroke-linejoin:bevel;paint-order:stroke markers fill;stop-color:#000000"
         id="rect48"
         width="45.034248"
         height="38.955639"
         x="262.48285"
         y="121.00073" /></clipPath><clipPath
       clipPathUnits="userSpaceOnUse"
       id="clipPath47"><rect
         style="fill:#ff0000;stroke:none;stroke-width:3;stroke-linecap:square;stroke-linejoin:miter;paint-order:stroke markers fill;stop-color:#000000"
         id="rect47"
         width="78"
         height="45.033199"
         x="763.61322"
         y="452.82422" /></clipPath><clipPath
       clipPathUnits="userSpaceOnUse"
       id="clipPath25"><rect
         style="fill:#ff0000;stroke:none;stroke-width:3;stroke-linecap:square;stroke-linejoin:miter;paint-order:stroke markers fill;stop-color:#000000"
         id="rect25-8"
         width="78"
         height="45.033199"
         x="763.61322"
         y="452.82422" /></clipPath><clipPath
       clipPathUnits="userSpaceOnUse"
       id="clipPath36"><rect
         style="fill:none;stroke:#000000;stroke-width:0.999999;stroke-linecap:butt;stroke-linejoin:bevel;paint-order:stroke markers fill;stop-color:#000000"
         id="rect36"
         width="44.999748"
         height="77.937294"
         x="251.53429"
         y="222.73541" /></clipPath><clipPath
       clipPathUnits="userSpaceOnUse"
       id="clipPath35"><rect
         style="fill:none;stroke:#000000;stroke-linecap:butt;stroke-linejoin:bevel;paint-order:stroke markers fill;stop-color:#000000"
         id="rect35"
         width="45.034248"
         height="38.955639"
         x="262.48285"
         y="121.00073" /></clipPath><clipPath
       clipPathUnits="userSpaceOnUse"
       id="clipPath17"><rect
         style="fill:none;stroke:#000000;stroke-linecap:butt;stroke-linejoin:bevel;paint-order:stroke markers fill;stop-color:#000000"
         id="rect17"
         width="45.034248"
         height="38.955639"
         x="262.48285"
         y="121.00073" /></clipPath><clipPath
       clipPathUnits="userSpaceOnUse"
       id="clipPath15"><rect
         style="fill:none;stroke:#000000;stroke-linecap:butt;stroke-linejoin:bevel;paint-order:stroke markers fill;stop-color:#000000"
         id="rect15-7"
         width="45.034248"
         height="38.955639"
         x="262.48285"
         y="121.00073" /></clipPath><pattern
       inkscape:collect="always"
       xlink:href="#ap107"
       preserveAspectRatio="xMidYMid"
       id="pattern5"
       patternTransform="matrix(0.2,0,0,0.2,848.4236,536.37873)"
       x="0"
       y="0" /><pattern
       patternUnits="userSpaceOnUse"
       preserveAspectRatio="xMidYMid"
       width="265.55448"
       height="209.71514"
       patternTransform="translate(848.4236,536.37873) scale(0.2)"
       style="fill:#180033"
       id="ap107"
       inkscape:collect="always"
       inkscape:isstock="true"
       inkscape:label="ap107"><path
         id="path6935"
         style="font-variation-settings:normal;opacity:1;mix-blend-mode:normal;fill-opacity:1;stroke:none;stroke-width:8.38594;stroke-linecap:butt;stroke-linejoin:miter;stroke-miterlimit:4;stroke-dasharray:none;stroke-dashoffset:0;stroke-opacity:1;paint-order:markers fill stroke;stop-color:#000000;stop-opacity:1"
         d="m 256.64889,0.00831496 -20.12413,0.00755906 c 3.60809,3.03155908 7.00003,6.48514018 10.25821,10.30707398 6.67181,7.827137 12.72529,17.189216 18.75129,27.054803 V 23.902413 c -4.18987,-6.459175 -8.5697,-12.629745 -13.32816,-18.2121453 -1.30216,-1.5274583 -2.64749,-3.0011716 -4.01995,-4.4366362 1.84396,0.7162583 3.56565,1.2662173 5.15358,1.6791307 4.01866,1.2058583 9.15553,1.3626331 12.19453,1.4461228 V 0.68375433 C 262.56011,0.54013228 259.34653,0.26040945 256.64889,0.01020472 Z M 8.8666205,0.01587402 C 5.854148,0.60287244 2.6793449,0.61708346 0.00566929,0.68348976 V 4.3786583 c 3.71708981,0 8.73800311,-0.5691969 12.17000271,-1.4461229 0.0018,-4.913e-4 0.0038,4.536e-4 0.0076,0 0.80281,-0.2086299 1.641638,-0.4565291 2.512404,-0.7411275 0.0018,-6.048e-4 0.0038,5.669e-4 0.0076,0 0.869253,-0.2834646 1.769839,-0.6048 2.702362,-0.9688441 -0.383017,0.4019905 -0.762482,0.8099149 -1.139565,1.2195023 -0.01134,0.011339 -0.02268,0.034016 -0.04762,0.059339 -0.323906,0.3511181 -0.647471,0.7031811 -0.967635,1.0601197 -0.139843,0.1553386 -0.277417,0.3155906 -0.41624,0.4719496 -0.506343,0.5704063 -1.010305,1.1443276 -1.507502,1.728 C 13.035213,6.1031433 12.745965,6.4456819 12.456605,6.7907528 8.0302488,12.079786 3.9315024,17.84383 0.0047622,23.906003 c -0.01133858,-0.01134 0.01133859,0.02268 0,0.01134 v 13.420082 c 3.9675213,6.497461 7.9368189,13.226305 12.0842458,19.952541 0.04762,0.07106 0.08315,0.143622 0.122079,0.214678 0.196913,0.317858 0.396056,0.613077 0.594104,0.924926 0.329574,0.520592 0.665234,1.03404 0.998475,1.538154 0.372284,0.564434 0.74468,1.121764 1.121764,1.666771 0.09487,0.139843 0.196913,0.277418 0.294047,0.41624 10.377147,14.839975 22.198262,22.421896 31.938747,26.135546 13.069795,4.252611 26.21537,4.799509 39.469908,0 10.695534,-4.077203 23.928488,-12.788145 34.971968,-30.682469 10.49953,-17.012069 19.80181,-34.141039 30.91536,-47.178822 3.25781,-3.8215559 6.64963,-7.2757418 10.2581,-10.30707404 h -17.4155 c 0.034,0.0075591 0.0711,0.01133858 0.10658,0.02267717 0.0227,0.0037795 0.034,0.01133858 0.0593,0.01133858 0.41741,0.0831496 0.82772,0.16365354 1.23791,0.25133858 0.84786,0.18028347 1.68302,0.37455118 2.50012,0.58817008 0.587,0.15307083 1.16213,0.32012603 1.7342,0.48975123 -1.33108,1.3944944 -2.62734,2.8315086 -3.89114,4.3141417 -5.14091,6.0309547 -9.81071,12.7518617 -14.3088,19.7808377 -2.14987,-3.359206 -4.3429,-6.648567 -6.60586,-9.82303 v -0.0076 c -1.28402,-1.800907 -2.59151,-3.560655 -3.92806,-5.28223 v -0.0076 c -0.2657,-0.342803 -0.5348,-0.6842455 -0.80277,-1.0233826 l -0.008,-0.00756 C 121.18357,8.9857448 120.91315,8.6429038 120.6428,8.3073196 h -0.008 c -0.27024,-0.3356221 -0.54191,-0.6676158 -0.81468,-0.9984378 l -0.008,-0.00756 C 119.5406,6.9691843 119.26802,6.6361323 118.99291,6.308863 l -0.008,-0.00756 c -0.27629,-0.327307 -0.56088,-0.6510236 -0.83959,-0.9747779 l -0.008,-0.00756 c -0.27855,-0.3235275 -0.5585,-0.6498141 -0.83954,-0.9676346 l -0.008,-0.00756 c -0.89647,-1.0186204 -1.80578,-2.0153952 -2.73286,-2.9905134 1.78907,-0.52886925 3.66255,-0.97594956 5.60704,-1.34199681 h -17.40325 c 0.5941,0.49802835 1.18106,1.01030551 1.76474,1.53195591 8.96923,8.0071559 16.62455,18.7652028 24.07056,30.6457318 -1.22449,1.997972 -2.44838,4.005468 -3.66456,6.029896 -0.31785,-0.534803 -0.64747,-1.07554 -0.9688,-1.605467 -1.64141,-2.697147 -3.34912,-5.345349 -5.15361,-7.905071 v -0.0076 c -0.22526,-0.318993 -0.45177,-0.633222 -0.68066,-0.949833 v -0.0076 c -0.22753,-0.316724 -0.46129,-0.630878 -0.69252,-0.943937 v -0.0076 c -0.23018,-0.311811 -0.46485,-0.620182 -0.69842,-0.932069 l -0.008,-0.0076 c -0.0711,-0.09487 -0.14211,-0.188598 -0.21468,-0.282331 -0.16592,-0.216945 -0.32844,-0.434003 -0.49685,-0.649814 -0.23585,-0.30463 -0.47672,-0.610734 -0.71743,-0.913096 l -0.008,-0.0076 c -0.24189,-0.303496 -0.48382,-0.605972 -0.7293,-0.907162 v -0.0076 c -0.24416,-0.297449 -0.49448,-0.58817 -0.74113,-0.882255 -0.003,-0.0034 -0.003,-0.01134 -0.008,-0.01134 -0.24793,-0.294047 -0.50279,-0.585789 -0.7542,-0.876321 -0.003,-0.0034 -0.003,-0.01134 -0.008,-0.01134 -0.25134,-0.290645 -0.5099,-0.577474 -0.76604,-0.864453 -0.003,-0.0034 -0.003,-0.01134 -0.008,-0.01134 -0.25626,-0.286866 -0.51228,-0.569197 -0.77197,-0.851414 -0.003,-0.0034 -0.003,-0.01134 -0.008,-0.01134 -0.25739,-0.281196 -0.52177,-0.557329 -0.78501,-0.833612 -0.004,-0.0038 -0.0113,-0.01134 -0.0113,-0.02268 -0.53008,-0.559711 -1.0696,-1.106381 -1.61783,-1.648404 -0.004,-0.0038 -0.0113,-0.01134 -0.0113,-0.01134 -1.3815,-1.36441 -2.81964,-2.675112 -4.32635,-3.915704 -1.20102,-0.988989 -2.44838,-1.927899 -3.73796,-2.82497 -0.004,-0.0034 -0.004,-0.01134 -0.008,-0.01134 C 95.502085,6.4721008 89.158639,3.5236913 81.738217,1.7974677 81.303043,1.690885 80.869002,1.5960189 80.426835,1.5034205 h -0.0076 C 80.312693,1.4807433 80.197417,1.4557984 80.088567,1.4323654 79.754079,1.3613102 79.428057,1.2997039 79.090091,1.2365858 78.638324,1.1534362 78.184139,1.066885 77.723565,0.99091654 h -0.0076 c -0.915439,-0.1504252 -1.847622,-0.28346457 -2.79428,-0.3984378 h -0.0076 C 74.441046,0.53314016 73.961953,0.48589606 73.480517,0.43373858 71.063206,0.19184882 68.543811,0.06599055 65.918627,0.06599055 v 0.0075591 C 49.685896,0.07604409 37.556939,4.8555969 28.060384,12.347754 c -4.901253,3.8671 -9.091956,8.444485 -12.856365,13.413922 -0.420964,0.556157 -0.839547,1.113486 -1.250079,1.67913 -0.467225,0.641537 -0.93086,1.289953 -1.384932,1.942488 -0.240756,0.347339 -0.479055,0.697286 -0.71743,1.04829 -0.622564,0.914268 -1.237039,1.836737 -1.838362,2.769827 C 9.2922331,34.31966 8.5864063,35.45023 7.8929386,36.590173 6.6789165,34.57697 5.4599811,32.580057 4.2345827,30.597014 5.1701669,29.122318 6.1141039,27.667767 7.0595528,26.23389 c 0.022677,-0.03402 0.047622,-0.08315 0.08315,-0.122079 0.8561763,-1.297512 1.7173039,-2.571099 2.5859149,-3.829984 0.2014488,-0.29178 0.4043713,-0.581027 0.6071433,-0.870388 0.809915,-1.160919 1.627426,-2.302752 2.451212,-3.425461 0.21241,-0.288 0.424555,-0.572787 0.636813,-0.857348 0.726916,-0.977121 1.459842,-1.942148 2.199949,-2.886199 0.163654,-0.208629 0.32504,-0.423344 0.489714,-0.63084 0.589379,-0.742337 1.184655,-1.473525 1.783257,-2.193789 C 21.428787,7.1692346 25.130721,3.3200504 29.092422,0.00755906 H 17.896706 V 0 Z M 199.65929,0.06349606 v 0.0075591 0.007559 c -28.42076,0 -44.01933,14.78271484 -55.61087,32.65557184 -11.59155,17.873461 -19.64009,38.830639 -33.37267,52.179212 -1.17989,1.146709 -2.33019,2.216542 -3.46835,3.247862 -3.6271,1.585814 -7.12302,3.527017 -10.55838,5.833776 -8.006551,4.008454 -19.063181,8.211364 -30.253568,8.211364 -12.42909,0 -24.346847,-5.166879 -32.153159,-9.498217 C 31.662539,90.70817 28.982249,89.095559 26.196359,87.79355 25.187225,86.87452 24.16955,85.927521 23.126287,84.913398 21.277002,83.115817 19.535773,81.177487 17.917531,79.245165 v -0.05934 C 11.111735,70.835339 5.6537575,60.621846 0.01182992,50.310992 v 7.47617 C 4.0457953,65.130369 8.2090961,72.355578 13.094929,78.805871 c 0.02268,0.03402 0.04724,0.05934 0.07105,0.09487 0.303496,0.399609 0.609525,0.795704 0.918992,1.188775 0.801638,1.024554 1.643906,2.0496 2.518602,3.057789 0.429279,0.495647 0.868006,0.985398 1.311383,1.470765 0.09487,0.106583 0.193133,0.222992 0.294047,0.330709 -0.09487,-0.02268 -0.196914,-0.04724 -0.294047,-0.07106 -0.433999,-0.106582 -0.867964,-0.21581 -1.299019,-0.305763 C 13.202306,83.808302 9.6361701,83.355893 5.9104252,83.138079 3.923074,79.647496 1.9670929,76.15098 0.00309921,72.561222 v 7.427074 c 0.55381418,1.009134 1.11942049,1.992416 1.67905509,2.996561 -0.5549858,-0.0076 -1.11707713,-0.07106 -1.67905509,-0.08315 l 0.00755906,7.090054 c 1.90688503,2.26e-4 3.75964723,0.07106 5.55174803,0.232441 3.0260409,0.264567 5.8980657,0.743508 8.6343687,1.415508 0.634394,0.155339 1.26085,0.320126 1.881146,0.496857 0.620221,0.176882 1.231484,0.361701 1.838438,0.557367 7.838135,2.535647 14.564183,6.749102 20.712302,12.237466 8.772473,7.83103 16.282319,18.29654 23.574161,29.86745 -1.226872,1.99314 -2.453858,3.9961 -3.670602,6.01758 -5.456352,-9.07276 -11.59748,-17.61294 -19.670702,-24.26041 -5.840428,-4.809 -12.709531,-8.58618 -20.945197,-10.82185 -0.668787,-0.18141 -1.347099,-0.35338 -2.034406,-0.51462 -0.653367,-0.15307 -1.315313,-0.29518 -1.985537,-0.42928 -0.03402,-0.008 -0.07106,-0.0113 -0.106583,-0.0227 -0.05934,-0.0113 -0.118677,-0.0227 -0.171968,-0.034 -0.333355,-0.0593 -0.661682,-0.13644 -0.998476,-0.19578 -0.04724,-0.004 -0.08315,-0.003 -0.122079,-0.008 -3.8778704,-0.68776 -8.0251838,-1.06605 -12.49477751,-1.06605 v 3.54195 c 6.73394641,0.001 12.64384251,0.85379 17.91802251,2.38386 v -0.008 c 7.31879,2.11978 13.395212,5.55787 18.671773,9.9027 8.055156,6.63269 14.253581,15.45343 19.866671,24.97134 -1.625991,2.71434 -3.263131,5.43617 -4.908473,8.15618 -8.234948,-11.13558 -18.636775,-20.39709 -33.629971,-24.49946 -0.617802,-0.16857 -1.242142,-0.32731 -1.875137,-0.47789 -0.05934,-0.0113 -0.106583,-0.034 -0.158741,-0.0472 -0.04762,-0.0113 -0.106582,-0.0227 -0.15307,-0.034 -0.636775,-0.14815 -1.283301,-0.28686 -1.936441,-0.41624 -0.651024,-0.13039 -1.31127,-0.2502 -1.979377,-0.3617 -0.165921,-0.0227 -0.335622,-0.0472 -0.50279,-0.0832 -0.257386,-0.034 -0.512278,-0.0832 -0.771969,-0.12207 -0.03402,-0.002 -0.05934,-0.004 -0.09487,-0.008 -3.2803654,-0.47789 -6.747704,-0.74117 -10.44200317,-0.74117 v 3.56651 c 4.04318737,0 7.79119367,0.30955 11.28759717,0.88226 0.276283,0.0476 0.553776,0.0949 0.827716,0.14098 0.356788,0.0593 0.709115,0.12699 1.06012,0.19578 0.267968,0.0472 0.537184,0.10658 0.802809,0.15874 0.02268,0.004 0.03402,0.008 0.05934,0.0113 0.633222,0.13418 1.259339,0.27629 1.875137,0.42928 0.679483,0.16857 1.350198,0.34999 2.00999,0.53953 14.189216,4.0707 23.721449,13.07894 31.626142,24.15632 -0.300094,0.48975 -0.594104,0.98185 -0.895294,1.47065 -1.519522,2.46282 -3.076498,4.70748 -4.651049,6.78977 -8.360164,-8.51516 -18.934526,-14.89999 -33.2256,-17.02922 -0.178016,-0.0227 -0.329575,-0.0227 -0.502791,-0.0472 -3.2285099,-0.46012 -6.6372658,-0.71032 -10.2642516,-0.71032 v 3.53578 c 3.804737,5.7e-4 7.3435843,0.27402 10.6564156,0.7838 0.02268,0.004 0.05934,0.008 0.08315,0.0113 0.03402,0.008 0.08315,0.0113 0.118677,0.0227 2.473058,0.38895 4.820598,0.91305 7.053165,1.55648 v -0.0113 c 9.847559,2.83828 17.451288,8.06087 23.849877,14.70089 -3.004044,3.61451 -6.058015,6.61228 -9.081637,9.09385 -4.377563,-2.71529 -9.268158,-4.89237 -14.76824,-6.37917 v -0.0227 c -5.358384,-1.45619 -11.2968534,-2.259 -17.91185814,-2.25995 v 3.57869 c 3.34329444,6e-4 6.48718114,0.20976 9.44923464,0.60714 0.022677,0.002 0.034016,0.004 0.059339,0.008 0.8170205,0.10658 1.6182795,0.23584 2.4082765,0.37342 0.355654,0.0593 0.703219,0.13417 1.054224,0.20145 0.474331,0.0949 0.945071,0.18595 1.409461,0.288 0.432832,0.0949 0.862073,0.19691 1.286854,0.30009 0.342803,0.0831 0.679483,0.17424 1.017486,0.26306 0.41144,0.10658 0.827641,0.21354 1.231673,0.3307 4.319584,1.25001 8.209436,2.95567 11.753386,5.03717 -4.679849,3.36642 -9.208857,5.58236 -13.254766,7.04712 -0.0017,5.6e-4 -0.0038,-7.2e-4 -0.0076,0 -0.843137,0.30463 -1.656945,0.57154 -2.451212,0.81464 -0.123213,0.034 -0.245292,0.0711 -0.367748,0.10658 -0.658129,0.19578 -1.292561,0.36888 -1.911912,0.52649 -0.106583,0.0227 -0.206362,0.0593 -0.306142,0.0832 -0.257386,0.0593 -0.50279,0.11867 -0.754167,0.17197 -0.33789,0.0831 -0.673549,0.15307 -0.998475,0.22072 -0.3794646,0.0831 -0.7542047,0.14929 -1.1158677,0.21468 -0.034016,0.008 -0.071055,0.0227 -0.1065827,0.0227 -0.1065827,0.0227 -0.2169449,0.034 -0.3250393,0.0593 -0.4055434,0.0711 -0.8016,0.12926 -1.1822741,0.18369 -0.376063,0.0227 -0.7363653,0.0711 -1.0719874,0.14097 -0.00756,8.4e-4 -0.011338,0.004 -0.022677,0.008 -3.6028725,0.42101 -5.78468035,0.20296 -5.78468035,0.20296 l 0.0075591,7.08386 c 0,0 2.97358105,0.17537 7.46985825,-0.41031 0.495685,-0.0227 1.0221732,-0.0831 1.5870992,-0.17196 2.349733,-0.38778 5.072504,-1.0198 8.021519,-1.97927 0.275149,-0.0831 0.549052,-0.16856 0.827716,-0.26343 v -0.0113 c 0.310677,-0.10658 0.609525,-0.192 0.924926,-0.30614 10.845808,-3.92576 24.498784,-12.63269 35.854451,-31.03181 11.027338,-17.86726 20.768277,-35.87388 32.631155,-49.12747 11.862728,-13.253634 25.471259,-21.815398 45.444549,-21.815398 19.97295,0 33.57566,8.561764 45.43854,21.815398 11.86273,13.25359 21.58541,31.26021 32.61275,49.12747 11.35566,18.39912 25.02705,27.10567 35.87282,31.03181 10.19062,3.68901 17.68017,3.13606 18.83716,3.1313 v -7.07153 c 0,0 -9.32009,-0.24076 -16.42885,-2.75146 -4.05838,-1.43403 -8.57873,-3.67941 -13.26085,-7.04712 7.86936,-4.62308 17.44762,-7.40678 29.6897,-7.40867 v -3.57872 c -13.41071,0.002 -24.06164,3.29647 -32.70467,8.65878 -3.02335,-2.48122 -6.0777,-5.47982 -9.08148,-9.09384 9.82548,-10.19751 22.4928,-17.05712 41.78615,-17.06011 v -3.53575 c -19.94105,0.003 -33.67585,7.26104 -44.01067,17.78926 -1.5764,-2.08411 -3.13542,-4.33028 -4.65717,-6.79586 -0.30123,-0.48854 -0.59531,-0.98067 -0.8953,-1.47065 9.48775,-13.29286 21.32799,-23.61392 40.74452,-25.98852 1.31248,-0.15988 2.66102,-0.2812 4.0444,-0.36775 0.26079,-0.0113 0.52055,-0.034 0.78501,-0.0476 0.40671,-0.0227 0.81823,-0.034 1.23171,-0.0593 0.0227,-9.5e-4 0.0472,9.4e-4 0.0831,0 0.25133,-0.008 0.50517,-0.0227 0.7601,-0.0227 0.0113,-2.6e-4 0.0227,2.3e-4 0.034,0 0.29178,-0.008 0.58224,-0.0113 0.87632,-0.0113 0.0476,-7.1e-4 0.10659,6.1e-4 0.15874,0 0.24189,-0.002 0.48503,-0.008 0.7293,-0.008 v -0.008 h 0.10658 v -3.56648 c -0.034,-1.5e-4 -0.0711,0 -0.10658,0 -12.98763,0 -23.3286,3.09154 -31.8223,8.15618 h 0.17197 c -7.99684,4.77404 -14.36258,11.29652 -19.787,18.63511 -1.64666,-2.72265 -3.28153,-5.4497 -4.90851,-8.16854 5.61396,-9.5193 11.81023,-18.34363 19.86671,-24.97735 7.94147,-6.53899 17.68539,-11.03138 30.76823,-12.05366 0.89646,-0.0711 1.81088,-0.12208 2.73913,-0.15875 0.12322,-0.004 0.25021,-0.008 0.37342,-0.0113 0.72216,-0.0227 1.45761,-0.034 2.19995,-0.034 0.13266,-7.2e-4 0.26457,-0.008 0.39844,-0.008 h 0.10658 v -0.008 -3.54194 c -3.09158,0.002 -6.34915,0.25738 -9.00196,0.52652 -11.34206,1.36785 -20.38526,5.35922 -27.87587,10.97503 v 0.0227 c -0.67238,0.50755 -1.33217,1.02932 -1.97938,1.56257 -8.07307,6.64751 -14.22062,15.18769 -19.67671,24.26041 -1.21595,-2.02231 -2.43889,-4.02977 -3.66444,-6.02374 7.29078,-11.56868 14.79647,-22.03105 23.56789,-29.86129 9.15465,-8.172357 19.58339,-13.530593 33.07237,-14.706934 1.79203,-0.156472 3.64487,-0.23244 5.5519,-0.23244 v -0.02268 l 0.0113,-7.071571 c -1.79864,0 -3.66062,0.119811 -5.51501,0.300094 -1.52424,-2.630853 -3.08587,-5.233738 -4.73083,-7.770217 C 243.71354,57.54085 228.096,42.733833 199.67539,42.733833 c -28.42088,0 -44.01933,14.807131 -55.61087,32.680101 -1.62838,2.510967 -3.17647,5.086828 -4.68779,7.690545 -1.82154,-0.139843 -3.93256,-0.220725 -6.59985,-0.220725 -0.19427,0.0028 -0.38302,0.01134 -0.5763,0.02268 4.90825,-8.771565 9.51946,-17.836459 14.854,-26.061921 11.3009,-17.425323 25.4115,-31.056378 52.62043,-31.056378 27.20874,0 41.34399,13.631055 52.64489,31.056378 4.73926,7.30715 8.92475,15.294501 13.23012,23.132788 V 72.550602 C 262.2991,66.610469 258.975,60.55612 255.30403,54.896088 243.71308,37.02274 228.09555,22.21595 199.6749,22.21595 v 0.0076 c -28.42088,0 -44.01933,14.80063 -55.61087,32.673978 -5.88877,9.080088 -10.86962,18.943634 -16.14093,28.213001 -4.46347,0.339024 -8.65168,1.062501 -12.64184,2.169222 13.23851,-14.085921 21.03341,-34.062425 31.7732,-50.62269 11.3009,-17.42536 25.41147,-31.0562641 52.62044,-31.0562641 27.20874,0 41.34399,13.6309041 52.64489,31.0562641 4.73892,7.30715 8.92497,15.281575 13.23012,23.12058 V 50.246438 C 262.29921,44.30725 258.975,38.374791 255.30403,32.714494 243.7132,14.841524 228.09555,0.05264882 199.6749,0.05264882 Z M 65.929776,3.6177638 c 5.026583,0 9.600076,0.4696063 13.787793,1.3419968 0.413858,0.08315 0.825335,0.1697008 1.231748,0.2630551 0.0038,0.0011 0.01134,0.00378 0.01134,0.00756 0.406715,0.094866 0.807534,0.192 1.207257,0.2940472 0.0038,0.00117 0.01134,0.00378 0.01134,0.00756 0.399648,0.1065827 0.796876,0.1957795 1.188813,0.3057638 0.0038,0.00121 0.01134,0.00378 0.01134,0.00756 0.392504,0.1065827 0.779074,0.2263937 1.164472,0.3428032 0.147024,0.047622 0.289134,0.094866 0.435213,0.1409764 0.627288,0.1969134 1.247584,0.3960945 1.85673,0.6130771 0.0038,0.00155 0.01134,0.00378 0.01134,0.00756 0.37115,0.1315275 0.738784,0.2657008 1.102828,0.4043716 0.0038,0.00155 0.01134,0.00378 0.01134,0.00756 0.363968,0.1387087 0.726916,0.2834646 1.085027,0.4292787 0.0038,0.00166 0.01134,0.00378 0.01134,0.00756 0.356788,0.1458898 0.715049,0.2940472 1.066054,0.4470425 l 0.0076,0.00756 c 0.351118,0.1530708 0.703219,0.311811 1.04829,0.4719874 l 0.0076,0.00756 c 0.34507,0.159874 0.684207,0.3178583 1.023344,0.4838173 l 0.01134,0.00756 c 0.33789,0.1659213 0.678312,0.335622 1.011515,0.5087244 0.0038,0.00212 0.01134,0.00378 0.01134,0.00756 0.331842,0.1731023 0.6593,0.3473387 0.986607,0.5264877 l 0.0076,0.0076 c 0.326173,0.17915 0.6593,0.360567 0.980674,0.5455 l 0.0076,0.0076 c 0.321259,0.185196 0.634431,0.378292 0.949833,0.570368 0.0038,0.0024 0.01134,0.0038 0.01134,0.0076 0.315591,0.192 0.627326,0.384227 0.938003,0.582236 0.0038,0.0024 0.01134,0.0038 0.01134,0.0076 0.309543,0.198048 0.614249,0.409096 0.918992,0.61304 h 0.0076 c 0.307276,0.205228 0.6048,0.413858 0.907162,0.624945 l 0.0076,0.0076 c 0.298961,0.20863 0.588171,0.416239 0.882256,0.630878 v 0.0076 c 0.592933,0.432831 1.172783,0.876321 1.746483,1.329788 0.003,0.0027 0.0113,0.0032 0.0113,0.0076 0.2846,0.225259 0.57158,0.461253 0.85141,0.692485 l 0.008,0.0076 c 0.0473,0.04762 0.10658,0.08315 0.15307,0.129259 0.22904,0.189733 0.45415,0.383018 0.68066,0.576303 0.003,0.0028 0.0113,0.0033 0.0113,0.0076 0.27515,0.235842 0.54905,0.475502 0.82057,0.71743 0.003,0.0028 0.0113,0.0033 0.0113,0.0076 0.27175,0.24189 0.53601,0.488542 0.80281,0.735194 0.003,0.0031 0.0113,0.0031 0.0113,0.0076 0.26683,0.246803 0.53363,0.496856 0.79687,0.747061 l 0.008,0.0076 c 0.008,0.0076 0.0113,0.01134 0.0227,0.02268 0.78977,0.755377 1.56185,1.531994 2.31639,2.328605 l 0.008,0.0076 c 0.25248,0.266835 0.49686,0.53246 0.74827,0.802809 l 0.008,0.0076 c 0.24794,0.270236 0.49686,0.538393 0.74113,0.814677 l 0.008,0.0076 c 0.24416,0.275149 0.48854,0.553776 0.72926,0.833612 l 0.008,0.0076 c 0.24189,0.279685 0.47909,0.55612 0.71743,0.839547 l 0.008,0.0076 c 0.23849,0.283465 0.4696,0.577512 0.70439,0.864491 l 0.008,0.0076 c 0.23471,0.286866 0.46722,0.579855 0.69845,0.870388 l 0.008,0.0076 c 0.23131,0.290645 0.46364,0.582236 0.69253,0.876321 v 0.0076 c 0.22904,0.295181 0.46008,0.589342 0.68658,0.888189 v 0.0076 c 0.2264,0.298961 0.4506,0.598828 0.67473,0.901228 v 0.0076 c 0.22299,0.302362 0.44704,0.607143 0.66761,0.913096 v 0.0076 c 0.22073,0.305763 0.44349,0.610696 0.66168,0.918992 v 0.0076 c 0.21808,0.308409 0.43404,0.613077 0.64986,0.924964 v 0.0076 c 2.2055,3.199597 4.28046,6.555704 6.28724,9.99462 -1.60607,2.682898 -3.22522,5.367496 -4.85322,8.052095 C 106.7452,34.335912 91.516384,22.293959 65.900787,22.293959 c -23.728441,0 -38.534626,10.328882 -49.513587,24.137915 -0.501581,0.630879 -1.0032,1.261266 -1.48902,1.905751 -1.660158,-2.747792 -3.303723,-5.490935 -4.9452477,-8.229845 1.2483027,-2.096429 2.5293737,-4.15476 3.8545137,-6.158476 0.662891,-1.001991 1.336289,-1.991811 2.022198,-2.965984 0.68538,-0.97474 1.38395,-1.930507 2.09571,-2.873953 v -0.0076 c 3.646753,-4.833257 7.6591,-9.23395 12.304819,-12.899222 C 39.16097,8.1569764 50.354306,3.6698079 65.900787,3.6698079 Z m 0,22.1829922 v 0.0076 c 25.194974,0 39.139054,11.672542 50.058974,27.238602 -0.1508,0.244157 -0.29632,0.490922 -0.44708,0.735193 -1.65872,2.687698 -3.35849,5.117443 -5.07995,7.353562 -1.98353,-2.066078 -4.09928,-4.013215 -6.35471,-5.80936 -0.19805,-0.157606 -0.39367,-0.316725 -0.5941,-0.47195 h -0.008 c -0.20032,-0.155338 -0.39844,-0.318992 -0.6,-0.471987 h -0.008 c -0.20296,-0.153071 -0.40793,-0.30841 -0.61308,-0.45891 h -0.008 c -0.20523,-0.150426 -0.40554,-0.305764 -0.61307,-0.454148 h -0.008 c -0.2075,-0.148158 -0.41503,-0.295182 -0.62495,-0.441147 h -0.008 c -0.20976,-0.14589 -0.41858,-0.291779 -0.63084,-0.435175 h -0.008 c -0.21241,-0.143622 -0.423342,-0.288 -0.636772,-0.429278 h -0.0076 C 99.312,51.881386 98.875616,51.601625 98.436019,51.330066 h -0.0076 c -0.439937,-0.271748 -0.885808,-0.535975 -1.335345,-0.796875 l -0.0076,-0.0076 C 96.184246,50.003866 95.26,49.506971 94.315836,49.030297 l -0.0076,-0.0076 C 86.497701,45.084661 77.211402,42.74778 65.91772,42.74778 c -19.591824,0 -33.177903,7.023382 -43.440756,17.256226 -1.428321,-1.923666 -2.839786,-3.992315 -4.22211,-6.2321 -0.118678,-0.190867 -0.232441,-0.384227 -0.349985,-0.576303 -9.45e-4,-0.0015 9.45e-4,-0.0038 0,-0.0076 -0.329575,-0.540737 -0.655748,-1.083817 -0.986608,-1.623609 0.322394,-0.44349 0.65813,-0.869216 0.986608,-1.30526 v -0.01134 C 28.531502,36.111496 42.269518,25.797543 65.917077,25.797543 Z m -0.07106,20.50405 v 0.0076 h 0.0076 l 0.01134,0.0076 0.0076,0.0076 h 0.03402 c 1.917845,0 3.767849,0.07106 5.557946,0.202961 0.03402,0.0031 0.08315,0.0029 0.122079,0.0076 0.0038,3.78e-4 0.01134,-2.27e-4 0.01134,0 0.04762,0.0038 0.09487,0.01134 0.147024,0.01134 2.388737,0.18633 4.668737,0.48737 6.844951,0.894123 0.272882,0.04762 0.545462,0.106582 0.81464,0.15307 l 0.0076,0.0076 c 0.270236,0.05934 0.536012,0.106583 0.802809,0.171969 l 0.0076,0.0076 c 0.266835,0.05934 0.539566,0.106583 0.80281,0.171969 l 0.0076,0.0076 c 0.263055,0.05934 0.535937,0.125858 0.796838,0.189732 0.132661,0.03402 0.266834,0.07106 0.398475,0.106583 0.131528,0.03402 0.261921,0.05934 0.392466,0.09487 h 0.0076 c 0.257386,0.07106 0.516964,0.143622 0.771969,0.214677 0.780283,0.218079 1.545978,0.451767 2.298028,0.698419 0.245291,0.08315 0.48737,0.161386 0.72926,0.245291 l 0.0076,0.0076 c 0.24189,0.08315 0.489751,0.164788 0.729298,0.251339 l 0.0076,0.0076 c 0.239622,0.08315 0.468397,0.174236 0.704352,0.263055 l 0.0076,0.0076 c 0.235842,0.09487 0.470778,0.176882 0.70439,0.269102 l 0.0076,0.0076 c 0.233575,0.09487 0.468397,0.192 0.698457,0.288 0.0038,0.0017 0.01134,0.0038 0.01134,0.0076 0.231308,0.09487 0.458911,0.189733 0.686589,0.288 0.0038,0.0018 0.01134,0.0038 0.01134,0.0076 0.227528,0.09487 0.455357,0.193133 0.680655,0.294047 0.0038,0.0019 0.01134,0.0038 0.01134,0.0076 0.22526,0.106582 0.454186,0.20296 0.673549,0.306142 0.01134,0.0076 0.02268,0.0076 0.03402,0.02268 0.667616,0.312945 1.322419,0.642708 1.967055,0.980674 0.0038,0.0022 0.01134,0.0038 0.01134,0.0076 0.214677,0.106582 0.43045,0.221858 0.64388,0.336756 0.0038,0.0021 0.01134,0.0038 0.01134,0.0076 0.212409,0.118677 0.421001,0.21959 0.630878,0.336756 0.0038,0.0022 0.01134,0.01134 0.01134,0.01134 0.209764,0.118677 0.417411,0.234709 0.624907,0.355654 0.0038,0.0022 0.01134,0.0034 0.01134,0.0076 0.207496,0.120945 0.413858,0.244157 0.619011,0.367748 0.0037,0.0024 0.01134,0.0038 0.01134,0.0076 0.205229,0.123213 0.410306,0.24189 0.613077,0.367748 0.0038,0.0024 0.01134,0.0037 0.01134,0.0076 0.202961,0.12548 0.406753,0.245291 0.607143,0.373417 l 0.0076,0.0076 c 0.106583,0.07106 0.21241,0.14589 0.318992,0.214678 0.09487,0.05934 0.188599,0.122078 0.282331,0.183685 0.0038,0.0025 0.01134,0.0036 0.01134,0.0076 0.198047,0.130393 0.392504,0.271748 0.58817,0.404371 0.0037,0.0026 0.01134,-0.0025 0.01134,0 0.19578,0.132662 0.388952,0.263433 0.582237,0.398438 0.0038,0.0026 0.01134,0.0034 0.01134,0.0076 0.193134,0.135307 0.390123,0.272882 0.582236,0.410306 l 0.0076,0.0076 c 0.193133,0.138708 0.385398,0.269102 0.576302,0.410305 l 0.008,0.0076 c 0.19086,0.140977 0.38184,0.290646 0.5704,0.435213 h 0.008 c 0.0593,0.03402 0.10658,0.08315 0.15874,0.122079 0.13531,0.106582 0.26457,0.212409 0.39844,0.318992 0.003,0.0027 0.0113,0.0034 0.0113,0.0076 0.18482,0.144756 0.36775,0.294047 0.55139,0.441146 h 0.008 c 0.18255,0.147024 0.36397,0.297827 0.5455,0.447043 0.003,0.0029 0.0113,0.0036 0.0113,0.0076 0.18142,0.149291 0.35943,0.301228 0.53953,0.452976 0.003,0.0028 0.0113,0.0034 0.0113,0.0076 0.17915,0.151937 0.35565,0.300095 0.53363,0.452977 0.003,0.003 0.0113,0.01134 0.0113,0.01134 0.17801,0.154205 0.34507,0.309544 0.52059,0.466016 0.003,0.0029 0.0113,0.0031 0.0113,0.0076 0.17537,0.156472 0.34167,0.320126 0.51462,0.477883 l 0.008,0.0076 c 0.0113,0.01134 0.034,0.02268 0.0472,0.04724 0.15912,0.144756 0.31446,0.288 0.47199,0.435212 0.003,0.0031 0.0113,0.0031 0.0113,0.0076 0.17197,0.160252 0.33789,0.32126 0.50868,0.483818 l 0.008,0.0076 c 0.17084,0.162519 0.34016,0.326173 0.50873,0.489751 0.003,0.0031 0.0113,0.0031 0.0113,0.0076 0.16819,0.164787 0.33448,0.335622 0.50279,0.50279 l 0.008,0.0076 c 0.49806,0.495685 0.9866,1.000856 1.47065,1.513587 -2.99445,3.536957 -6.03394,6.479584 -9.038703,8.903887 -0.682277,-0.43419 -1.38183,-0.851601 -2.086296,-1.257598 -0.481474,-0.277417 -0.971188,-0.550223 -1.464643,-0.814677 -0.163653,-0.08315 -0.320126,-0.170835 -0.483817,-0.257386 h -0.0076 c -0.330709,-0.173102 -0.668788,-0.347338 -1.004372,-0.514658 -0.167055,-0.08315 -0.334488,-0.169701 -0.50279,-0.251339 h -0.0076 c -0.168567,-0.08315 -0.33789,-0.170834 -0.508725,-0.251338 h -0.0076 c -0.169701,-0.08315 -0.336756,-0.15874 -0.508724,-0.239622 h -0.0076 c -0.518211,-0.236977 -1.0447,-0.468397 -1.574892,-0.692523 h -0.0076 C 90.753168,68.4966 90.57742,68.419502 90.40205,68.346935 h -0.0076 c -0.07106,-0.02268 -0.143622,-0.05934 -0.214677,-0.08315 -0.106583,-0.04724 -0.218079,-0.09487 -0.325039,-0.135307 -0.360567,-0.143622 -0.724536,-0.279685 -1.090961,-0.41624 -0.183685,-0.07106 -0.366236,-0.136441 -0.551395,-0.201448 -6.466054,-2.333821 -13.846035,-3.652196 -22.354545,-3.652196 -13.119723,0 -23.568265,3.14075 -32.104177,8.303358 C 30.712365,69.621808 27.643124,66.560844 24.62948,62.865789 34.387389,52.973291 46.906696,46.34502 65.858079,46.34502 Z m 133.790694,0.02268 c 27.20871,0 41.3441,13.637103 52.64504,31.062426 1.32439,2.042078 2.59125,4.152869 3.836,6.287206 -3.4071,0.506381 -6.54482,1.185827 -9.00798,1.8384 C 236.34973,72.955843 221.94671,63.828813 199.64946,63.828813 v 0.0076 c -22.47409,0 -36.91612,9.268648 -47.71189,21.9809 -3.3905,-0.966463 -5.74945,-1.71874 -8.70168,-2.218318 1.23266,-2.108749 2.48406,-4.188926 3.79321,-6.207571 C 158.33,59.96606 172.4406,46.328995 199.64946,46.328995 Z m 0,21.073852 v 0.0076 c 20.63226,0 33.72907,7.853708 43.7901,19.241651 -0.61546,0.224126 -1.22853,0.456529 -1.83224,0.698419 -0.034,0.01134 -0.0711,0.02268 -0.10658,0.04724 -2.40971,0.974778 -4.72951,2.094312 -6.96125,3.339666 -3.62056,-2.187288 -7.47186,-4.035628 -11.58172,-5.484435 -6.94809,-2.728819 -14.65712,-4.277291 -23.31069,-4.277291 -10.85654,0 -20.22693,2.438665 -28.4702,6.58749 -2.31995,1.087408 -4.55947,2.300749 -6.71009,3.640025 -2.81216,-1.62342 -5.77282,-3.030992 -8.87316,-4.216101 10.09194,-11.565203 23.2233,-19.578671 44.05345,-19.578671 z m -134.378977,0.0076 h 0.0076 c 0.213543,-0.0017 0.428069,0 0.64388,0 0.930898,0 1.845166,0.0076 2.745336,0.04762 0.01134,5.66e-4 0.03401,-6.05e-4 0.04724,0 1.959798,0.07106 3.847861,0.220346 5.668346,0.435174 0.03402,0.0038 0.08315,0.01134 0.122079,0.01134 0.0038,4.53e-4 0.01134,-4.91e-4 0.01134,0 0.04762,0.0038 0.08315,0.0076 0.122079,0.02268 2.206451,0.269102 4.313802,0.634432 6.33018,1.102828 0.03401,0.0076 0.07106,-8.31e-4 0.106582,0.02268 h 0.0076 c 0.03402,0.0076 0.07106,0.01134 0.106583,0.02268 5.616643,1.328466 10.523717,3.404863 14.909254,6.054349 -4.514684,3.184177 -8.880529,5.311408 -12.795062,6.728467 -11.443049,4.032151 -24.221367,3.011036 -32.815067,0 -4.171692,-1.510149 -8.8543,-3.807686 -13.689714,-7.353525 7.622929,-4.350538 16.815307,-7.002293 28.470312,-7.096101 z M 199.88232,88.182501 h 0.008 v 0.214677 c 0.034,-7.18e-4 0.071,6.8e-4 0.10658,0 10.91989,-0.198047 19.9677,2.310085 27.87587,6.636586 -1.9745,1.438753 -3.88585,2.967042 -5.71729,4.602028 -1.59035,1.419548 -3.12684,2.909068 -4.62667,4.455038 -4.84574,-1.15381 -10.16062,-1.78359 -16.01836,-1.78325 -0.50037,0 -1.00554,-0.002 -1.51355,0.008 -0.034,5.6e-4 -0.0711,-6.1e-4 -0.10658,0 v 3.56031 c 0.034,-6e-4 0.071,6.8e-4 0.10658,0 5.39191,-0.0949 10.28202,0.33222 14.74367,1.21331 -4.75835,5.31333 -9.10594,11.2159 -13.25465,17.44006 -0.57985,-0.008 -1.04591,-0.003 -1.2929,0 v -0.0113 c -0.12586,0.002 -0.19578,0.008 -0.19578,0.0113 -0.034,5.7e-4 -0.0711,0.004 -0.10658,0.008 v 2.41447 c -0.002,0.004 -0.004,0.008 -0.008,0.0113 v -2.43273 c -0.034,-7.2e-4 -0.0711,-0.008 -0.10658,-0.008 0,-0.008 -0.27742,-0.0113 -0.7293,-0.0113 v 0.008 c -0.55733,0.002 -1.3835,0.0113 -2.26727,0.034 -4.08222,-6.12737 -8.35615,-11.94422 -13.0219,-17.19492 4.80094,-1.06251 10.1057,-1.59043 16.01847,-1.48286 0.034,7.1e-4 0.071,-6.1e-4 0.10658,0 v -3.55416 c -0.034,-6e-4 -0.0711,-0.004 -0.10658,-0.008 v 0.008 c -0.50873,-0.008 -1.01269,-0.0113 -1.51359,-0.0113 -6.35698,-3.4e-4 -12.07121,0.74117 -17.24402,2.08967 -3.12548,-3.23777 -6.45052,-6.216458 -10.0069,-8.860955 8.11706,-4.628636 17.42898,-7.344869 28.75834,-7.139112 0.034,6.8e-4 0.0711,-7.18e-4 0.10659,0 z M 45.83263,101.95192 c 6.206135,2.20434 13.239987,3.82383 20.54691,3.82383 7.158236,0 14.154595,-1.55652 20.399849,-3.68901 -1.640466,1.58426 -3.223181,3.24514 -4.761335,4.96362 -5.674054,6.33932 -10.758615,13.52953 -15.632353,21.09225 -6.232214,-9.67736 -12.828019,-18.7251 -20.553071,-26.19069 z m 86.93061,1.53812 c -28.42061,0 -44.043857,14.7761 -55.63529,32.64953 -11.591547,17.87346 -19.615522,38.83052 -33.348095,52.17909 -10.282016,9.99447 -18.997342,15.48378 -25.85983,18.46341 -1.230047,0.53481 -2.401171,0.99254 -3.511219,1.37889 -0.554986,0.19313 -1.093341,0.36775 -1.617826,0.52649 -0.396057,0.11981 -0.77435,0.22299 -1.151434,0.32504 -0.124346,0.034 -0.257385,0.071 -0.379464,0.10658 -0.94749,0.2468 -1.8348474,0.43876 -2.6656253,0.58817 h 9.3266263 11.116045 c 0.09487,-0.0832 0.190866,-0.16479 0.288,-0.24529 9.921184,-8.22501 21.364611,-13.24033 36.583596,-13.24849 v 0.0113 c 1.433537,0 2.829733,0.0476 4.197695,0.13531 0.0038,3.8e-4 0.01134,-2.3e-4 0.01134,0 0.07106,0.004 0.138709,0.0113 0.20863,0.0227 0.385399,0.0227 0.77435,0.0593 1.151433,0.0949 2.107692,0.18369 4.139226,0.46957 6.103446,0.85142 0.388951,0.0711 0.77435,0.14929 1.158539,0.23244 1.941694,0.42217 3.817171,0.94156 5.631496,1.55036 0.359433,0.12095 0.71743,0.24567 1.071987,0.37342 l 0.0076,0.008 c 0.355654,0.12812 0.709115,0.25738 1.06012,0.3925 l 0.0076,0.008 c 0.703181,0.27024 1.404359,0.55261 2.089663,0.85141 5.167332,2.25298 9.841739,5.29081 14.216687,8.9652 h 17.06011 c 3.93861,-0.76128 8.20671,-1.18228 12.87473,-1.18228 v 0.008 h 0.008 c 0.5514,0 1.09569,0.008 1.6362,0.0227 0.54073,0.0113 1.08147,0.0227 1.61166,0.0472 0.53004,0.0227 1.04943,0.0476 1.5687,0.0831 0.4518,0.0227 0.89767,0.0593 1.34199,0.0949 0.3001,0.0227 0.59766,0.0476 0.89534,0.0832 0.12926,0.0113 0.25738,0.0227 0.38657,0.034 0.29404,0.034 0.58578,0.0593 0.87635,0.0949 0.2812,0.034 0.5621,0.071 0.83951,0.10658 0.0711,0.008 0.13531,0.004 0.20145,0.0227 0.10658,0.0113 0.2041,0.0227 0.30614,0.0472 0.21581,0.0227 0.42932,0.0593 0.64392,0.0949 0.3428,0.0476 0.68542,0.10658 1.02335,0.15874 0.0476,0.008 0.10658,0.0227 0.15874,0.034 0.40203,0.0711 0.80519,0.13984 1.20113,0.21467 0.0227,0.004 0.034,0.004 0.0593,0.008 0.0476,0.0113 0.0949,0.0227 0.14702,0.034 h 17.0417 c 8.71677,-7.3406 18.72227,-12.15069 31.38108,-13.25469 1.79006,-0.15874 3.64399,-0.25739 5.55806,-0.25739 1.91131,0 3.76203,0.0949 5.55795,0.25739 12.65881,1.104 22.66609,5.91409 31.38104,13.25469 h 20.32017 c -0.83248,-0.14929 -1.7218,-0.33563 -2.67178,-0.58224 -5.98095,-1.55524 -14.28136,-5.26035 -24.53613,-13.66522 -0.50872,-0.41741 -1.01386,-0.83361 -1.53195,-1.27465 -0.034,-0.0227 -0.0593,-0.0472 -0.0949,-0.0831 -2.0389,-1.73839 -4.15264,-3.65673 -6.33645,-5.77946 -13.73243,-13.34835 -21.78108,-34.30587 -33.37263,-52.1791 -11.59071,-17.87214 -27.18228,-32.65342 -55.59866,-32.65569 z m 0,3.53579 c 27.2084,0 41.31957,13.63699 52.62047,31.06242 11.3009,17.4251 19.32763,38.63403 33.88123,52.77971 0.64271,0.62494 1.27987,1.22781 1.91192,1.81999 -4.66398,-1.65683 -9.66104,-2.80222 -15.06244,-3.29681 -7.96944,-13.62073 -14.93673,-28.92888 -25.13061,-41.21023 -10.79108,-12.99995 -25.42144,-22.53233 -48.22057,-22.53233 -22.81501,0 -37.476059,9.54248 -48.26952,22.55675 -10.187301,12.28373 -17.150211,27.56897 -25.118363,41.18581 -5.369537,0.50514 -10.365165,1.62894 -15.01954,3.27844 0.62967,-0.59055 1.258621,-1.17872 1.899704,-1.80162 14.553714,-14.14594 22.561966,-35.35461 33.862866,-52.77971 11.300901,-17.42532 25.436033,-31.06242 52.644853,-31.06242 z m 66.35316,21.08005 c 0.004,1.1e-4 0.008,0 0.0113,0 l -0.008,0.008 z m -66.35316,1.10872 c 21.827,0 35.14639,8.78056 45.48752,21.2394 9.29019,11.19265 15.99141,25.40927 23.59858,38.67934 -0.72926,-0.0227 -1.45796,-0.0476 -2.19992,-0.0476 -1.71035,0 -3.37867,0.071 -5.02484,0.19578 -6.15583,-10.89441 -12.92202,-21.45324 -22.30556,-29.42623 -9.74665,-8.28121 -22.33036,-13.68975 -39.55578,-13.68975 -17.32343,0 -29.97596,5.4887 -39.74559,13.84913 -9.289511,7.94914 -16.000554,18.42898 -22.115603,29.24844 -1.630639,-0.11867 -3.296504,-0.18368 -4.994343,-0.18368 v 0.008 c -0.755376,1.5e-4 -1.50172,0.0227 -2.242772,0.0472 7.600441,-13.25938 14.309216,-27.46877 23.586293,-38.65489 10.343925,-12.47176 23.669855,-21.25765 45.512015,-21.25765 z m 0,20.5163 c 16.49091,0 28.07841,5.05183 37.26395,12.85633 8.4709,7.1975 14.85528,16.82033 20.73067,27.08541 -2.94939,0.38185 -5.78207,0.94866 -8.49937,1.69739 -10.94921,-13.80144 -25.77652,-24.1256 -49.49521,-24.1256 -23.70652,0 -38.561201,10.30625 -49.507431,24.09502 -0.131528,-0.034 -0.265701,-0.071 -0.398438,-0.10658 -0.0038,-0.001 -0.01134,-0.004 -0.01134,-0.008 -0.422135,-0.10658 -0.841927,-0.22072 -1.268447,-0.32504 -0.0038,-9.4e-4 -0.01134,-0.004 -0.01134,-0.008 -0.426898,-0.10658 -0.860939,-0.19918 -1.293052,-0.29405 -0.0038,-9.4e-4 -0.01134,-0.004 -0.01134,-0.008 -1.780611,-0.39251 -3.610356,-0.70795 -5.484435,-0.94988 5.830602,-10.18919 12.153298,-19.77252 20.534703,-26.9444 9.20947,-7.88084 20.86893,-12.97277 37.45376,-12.97277 z m 0,21.08005 h 0.008 c 22.08835,0.002 35.48662,8.99112 45.84291,21.69891 -2.99944,1.03638 -5.86617,2.27308 -8.59748,3.7197 -10.17865,-7.33021 -22.36165,-11.84535 -37.25159,-11.84535 -0.24189,0 -0.48855,-0.002 -0.72926,0 -14.54143,0.14476 -26.4937,4.62626 -36.497881,11.82078 -0.229039,-0.12095 -0.455357,-0.24302 -0.686589,-0.3617 -0.371149,-0.18973 -0.74589,-0.37493 -1.121801,-0.55737 -0.0038,-0.002 -0.01134,-0.004 -0.01134,-0.008 -0.376063,-0.18255 -0.752995,-0.36397 -1.133631,-0.53956 -0.0038,-0.002 -0.01134,-0.004 -0.01134,-0.008 -0.380636,-0.17537 -0.770759,-0.34621 -1.151433,-0.51466 -0.0038,-0.002 -0.01134,-0.004 -0.01134,-0.008 -0.385398,-0.16819 -0.774387,-0.32957 -1.16451,-0.48975 -0.0038,-0.002 -0.01134,-0.004 -0.01134,-0.008 -0.785008,-0.32239 -1.578218,-0.62135 -2.383749,-0.9131 -0.0038,-0.002 -0.0038,-0.0113 -0.0076,-0.0113 -0.305763,-0.10659 -0.616592,-0.21808 -0.924926,-0.32504 10.361726,-12.68489 23.78158,-21.65435 45.84903,-21.65602 z m 0.0227,20.66332 -0.008,0.008 -0.008,0.008 v 0.008 c 12.27307,0.001 22.05944,3.24647 30.60291,8.80581 -3.37319,2.33904 -6.53923,4.98002 -9.53507,7.85598 -0.78028,-0.25966 -1.57716,-0.50517 -2.38375,-0.7352 -0.0227,-0.008 -0.0476,-0.008 -0.0711,-0.0227 -0.4613,-0.1304 -0.92731,-0.25248 -1.39714,-0.37342 -0.47078,-0.12095 -0.94749,-0.23244 -1.42787,-0.3428 -0.46246,-0.10659 -0.9261,-0.20977 -1.3971,-0.30615 -0.0113,-0.003 -0.034,-0.0113 -0.0476,-0.0113 -0.0476,-0.0113 -0.0949,-0.0227 -0.14702,-0.034 -0.421,-0.0831 -0.84669,-0.15874 -1.27465,-0.23962 -0.0227,-0.004 -0.034,-0.0113 -0.0593,-0.0113 -0.0476,-0.008 -0.0949,-0.008 -0.14703,-0.0227 -0.32957,-0.0593 -0.65934,-0.11867 -0.99254,-0.17197 -0.25625,-0.0476 -0.51349,-0.0831 -0.77197,-0.12207 -0.25965,-0.034 -0.52176,-0.0711 -0.78383,-0.10659 -0.23963,-0.034 -0.48144,-0.0711 -0.72337,-0.0949 -0.0949,-0.0113 -0.20031,-0.0227 -0.30009,-0.034 -0.12586,-0.0113 -0.25361,-0.0227 -0.37947,-0.0476 -0.24415,-0.0227 -0.48854,-0.0593 -0.73519,-0.0831 -0.45063,-0.0473 -0.90244,-0.0949 -1.36052,-0.13531 -0.51583,-0.0472 -1.03759,-0.0832 -1.56253,-0.12208 -0.0227,-0.001 -0.034,-0.004 -0.0593,-0.008 -0.008,-4.5e-4 -0.004,6.1e-4 -0.0227,0 -0.53839,-0.034 -1.08268,-0.0593 -1.63003,-0.0831 -0.55499,-0.0227 -1.11349,-0.0476 -1.67902,-0.0593 -0.56802,-0.0113 -1.13722,-0.0227 -1.7159,-0.0227 -0.26684,0 -0.53836,-0.003 -0.80277,0 -7.60116,0.071 -14.28325,1.20669 -20.2221,3.18036 -0.20523,-0.19805 -0.41269,-0.39251 -0.61901,-0.58817 -0.30237,-0.28687 -0.60597,-0.58341 -0.9131,-0.86446 l -0.008,-0.008 c -0.30576,-0.28234 -0.60948,-0.56327 -0.91899,-0.83955 -0.003,-0.003 -0.0113,-0.003 -0.0113,-0.008 -0.30954,-0.27628 -0.62373,-0.55616 -0.938,-0.82768 l -0.008,-0.008 c -0.31408,-0.27137 -0.63205,-0.54308 -0.94983,-0.8087 -0.004,-0.003 -0.0113,-0.003 -0.0113,-0.008 -0.31786,-0.2657 -0.63443,-0.53598 -0.95577,-0.79688 v -0.008 c -0.32239,-0.26078 -0.64271,-0.51704 -0.96884,-0.772 -0.003,-0.003 -0.0113,-0.003 -0.0113,-0.008 -0.17197,-0.1338 -0.34734,-0.2657 -0.52056,-0.39844 -0.15874,-0.12208 -0.31785,-0.24643 -0.47788,-0.36775 -0.33071,-0.24907 -0.65813,-0.49209 -0.99254,-0.73519 -0.004,-0.003 -0.0113,-0.003 -0.0113,-0.008 -0.33449,-0.24303 -0.67238,-0.4862 -1.01152,-0.72337 -0.004,-0.003 -0.0113,-0.004 -0.0113,-0.008 -0.0593,-0.0472 -0.12208,-0.0831 -0.18369,-0.13531 8.53247,-5.53081 18.32156,-8.76182 30.55998,-8.76287 z m 132.74896,18.17537 -0.10659,0.0593 h 0.10659 z M 0,209.68365 v 0.0227 h 0.00755906 0.05933858 l -0.05933858,-0.0227 z m 199.65358,0.0113 v 0.008 c -0.12586,0 -0.24794,0.004 -0.37342,0.008 h 1.12774 c -0.25247,-0.002 -0.49924,-0.0113 -0.75421,-0.0113 z" /></pattern><inkscape:path-effect
       effect="fillet_chamfer"
       id="path-effect283"
       is_visible="true"
       lpeversion="1"
       nodesatellites_param="F,0,0,1,0,75,0,1 @ F,0,0,1,0,75,0,1 @ F,0,0,1,0,75,0,1 @ F,0,0,1,0,75,0,1 @ F,0,0,1,0,75,0,1 @ F,0,0,1,0,75,0,1 @ F,0,0,1,0,75,0,1 @ F,0,0,1,0,75,0,1"
       radius="76"
       unit="px"
       method="auto"
       mode="F"
       chamfer_steps="1"
       flexible="false"
       use_knot_distance="true"
       apply_no_radius="true"
       apply_with_radius="true"
       only_selected="false"
       hide_knots="false" /><clipPath
       clipPathUnits="userSpaceOnUse"
       id="clipPath277"><rect
         style="fill:none;stroke:#000000;stroke-width:0.999999;stroke-linecap:butt;stroke-linejoin:bevel;paint-order:stroke markers fill;stop-color:#000000"
         id="rect277"
         width="44.999748"
         height="77.937294"
         x="251.53429"
         y="222.73541" /></clipPath><clipPath
       clipPathUnits="userSpaceOnUse"
       id="clipPath275"><rect
         style="fill:none;stroke:#000000;stroke-width:0.999999;stroke-linecap:butt;stroke-linejoin:bevel;paint-order:stroke markers fill;stop-color:#000000"
         id="rect275"
         width="44.999748"
         height="77.937294"
         x="251.53429"
         y="222.73541" /></clipPath><clipPath
       clipPathUnits="userSpaceOnUse"
       id="clipPath247"><path
         id="path247"
         style="stroke-width:0.1;stroke-linecap:square;paint-order:markers fill stroke;stop-color:#000000"
         d="m 438.25066,553.76374 859.87054,0 v 201.39554 l -859.87054,0 z"
         sodipodi:nodetypes="ccccc" /></clipPath><clipPath
       clipPathUnits="userSpaceOnUse"
       id="clipPath244"><path
         id="path244"
         style="stroke-width:0.1;stroke-linecap:square;paint-order:markers fill stroke;stop-color:#000000"
         d="m 438.25066,553.76374 859.87054,0 v 201.39554 l -859.87054,0 z"
         sodipodi:nodetypes="ccccc" /></clipPath><clipPath
       clipPathUnits="userSpaceOnUse"
       id="clipPath55"><path
         id="path55"
         style="stroke-width:0.1;stroke-linecap:square;paint-order:markers fill stroke;stop-color:#000000"
         d="m 1736.6147,-745.57287 h 1589.4765 v 72.46715 H 1736.6147 Z" /></clipPath><pattern
       inkscape:collect="always"
       xlink:href="#Cubes"
       preserveAspectRatio="none"
       id="pattern208"
       patternTransform="scale(-0.4)"
       x="0"
       y="0"
       width="312.4" /><pattern
       patternUnits="userSpaceOnUse"
       width="142"
       height="123"
       patternTransform="scale(0.4)"
       id="Cubes"
       preserveAspectRatio="none"
       style="fill:#00acd6"
       x="0"
       y="0"
       inkscape:label="Cubes"
       inkscape:collect="always"
       inkscape:isstock="true"><path
         id="path14"
         style="fill-opacity:0.6;stroke-width:2;stroke-miterlimit:10"
         d="M 0.00195313,0.001953 V 0.0039061 L 35.509766,20.503906 71.009766,0.0078124 106.50977,20.503906 142,0.0136718 V 0.001953 Z" /><path
         id="path16"
         style="fill-opacity:0.3;stroke-width:2;stroke-miterlimit:10"
         d="m 35.503902,61.5 0.0039,0.002 v 41 L 0,123.00195 V 81.998047 Z M 142.01171,0 l 0.004,0.002 v 41 l -35.5079,20.499953 V 20.498047 Z m -71.000002,0 0.0039,0.002 v 41 L 35.507806,61.501953 V 20.498047 Z m 35.492192,61.5 0.004,0.002 v 41 L 71,123.00195 V 81.998047 Z" /><path
         id="path18"
         style="fill-opacity:1;stroke-width:2;stroke-miterlimit:10"
         d="m 106.49609,61.5 -0.004,0.002 v 41 L 142,123.00195 V 81.998047 Z M 71.0039,0 71,0.002 v 41 l 35.50781,20.499953 V 20.498047 Z m -71,0 L 0,0.002 v 41 L 35.507806,61.501953 V 20.498047 Z m 35.492194,61.5 -0.0039,0.002 v 41 L 71,123.00195 V 81.998047 Z" /><path
         id="path20"
         style="fill-opacity:0.6;stroke-width:2;stroke-miterlimit:10"
         d="m 70.998047,41.001953 -35.5,20.496094 L 0,41.003906 v 40.998047 l 0.00195313,0.002 35.49999987,-20.496094 35.5,20.496094 L 106.50195,61.507812 142,82.001953 V 41.003906 l -0.002,-0.002 -35.5,20.496094 z" /><path
         id="path26"
         style="fill-opacity:0.6;stroke-width:2;stroke-miterlimit:10"
         d="M 35.505859,102.50195 0.00195313,123 v 0.002 H 142 v -0.008 l -35.49414,-20.49219 -35.500001,20.49609 z" /></pattern><clipPath
       clipPathUnits="userSpaceOnUse"
       id="clipPath205"><rect
         style="fill:none;stroke:#000000;stroke-width:0.999999;stroke-linecap:butt;stroke-linejoin:bevel;paint-order:stroke markers fill;stop-color:#000000"
         id="rect205"
         width="44.999748"
         height="77.937294"
         x="251.53429"
         y="222.73541" /></clipPath><clipPath
       clipPathUnits="userSpaceOnUse"
       id="clipPath201"><rect
         style="fill:none;stroke:#000000;stroke-width:0.999999;stroke-linecap:butt;stroke-linejoin:bevel;paint-order:stroke markers fill;stop-color:#000000"
         id="rect201"
         width="44.999748"
         height="77.937294"
         x="251.53429"
         y="222.73541" /></clipPath><clipPath
       clipPathUnits="userSpaceOnUse"
       id="clipPath54"><path
         id="path54"
         style="stroke-width:0.0999999;stroke-linecap:square;paint-order:markers fill stroke;stop-color:#000000"
         d="m 1691.1994,-792.32001 h 1634.8919 v 92.82806 H 1691.1994 Z" /></clipPath><clipPath
       clipPathUnits="userSpaceOnUse"
       id="clipPath171"><rect
         style="fill:#000000;stroke:#000000;stroke-width:0;stroke-linejoin:bevel;paint-order:stroke markers fill;stop-color:#000000"
         id="rect171"
         width="20"
         height="200"
         x="530"
         y="595" /></clipPath><clipPath
       clipPathUnits="userSpaceOnUse"
       id="clipPath167"><rect
         style="fill:#000000;stroke:#000000;stroke-width:0;stroke-linejoin:bevel;paint-order:stroke markers fill;stop-color:#000000"
         id="rect5-4"
         width="20"
         height="200"
         x="530"
         y="595" /></clipPath><clipPath
       clipPathUnits="userSpaceOnUse"
       id="clipPath165"><path
         id="path165"
         style="stroke-width:0.0999999;stroke-linecap:square;paint-order:markers fill stroke;stop-color:#000000"
         d="m 1806.4991,-753.5228 h 1637.2646 v 66.90533 H 1806.4991 Z" /></clipPath><clipPath
       clipPathUnits="userSpaceOnUse"
       id="clipPath5"><path
         id="path5"
         style="stroke-width:0.1;stroke-linecap:square;paint-order:markers fill stroke;stop-color:#000000"
         d="m 438.25066,553.76374 859.87054,0 v 201.39554 l -859.87054,0 z"
         sodipodi:nodetypes="ccccc" /></clipPath><clipPath
       clipPathUnits="userSpaceOnUse"
       id="clipPath94"><rect
         style="fill:none;stroke:#000000;stroke-width:0.999999;stroke-linecap:butt;stroke-linejoin:bevel;paint-order:stroke markers fill;stop-color:#000000"
         id="rect94"
         width="44.999748"
         height="77.937294"
         x="251.53429"
         y="222.73541" /></clipPath><clipPath
       clipPathUnits="userSpaceOnUse"
       id="clipPath51"><path
         id="path51"
         style="stroke-width:0.0999999;stroke-linecap:square;paint-order:markers fill stroke;stop-color:#000000"
         d="m 1806.4991,-753.5228 h 1637.2646 v 66.90533 H 1806.4991 Z" /></clipPath><clipPath
       clipPathUnits="userSpaceOnUse"
       id="clipPath24"><rect
         style="fill:none;stroke:#000000;stroke-width:0.999999;stroke-linecap:butt;stroke-linejoin:bevel;paint-order:stroke markers fill;stop-color:#000000"
         id="rect24"
         width="44.999748"
         height="77.937294"
         x="251.53429"
         y="222.73541" /></clipPath><linearGradient
       id="linearGradient16"
       inkscape:collect="always"><stop
         style="stop-color:#00add8;stop-opacity:1;"
         offset="0"
         id="stop16" /><stop
         style="stop-color:#00add8;stop-opacity:1;"
         offset="0.6541484"
         id="stop18" /><stop
         style="stop-color:#00ccff;stop-opacity:1;"
         offset="1"
         id="stop17" /></linearGradient><linearGradient
       id="linearGradient1"
       inkscape:collect="always"><stop
         style="stop-color:#dfa406;stop-opacity:1;"
         offset="0"
         id="stop1" /><stop
         style="stop-color:#e0a606;stop-opacity:1;"
         offset="0.64999998"
         id="stop3" /><stop
         style="stop-color:#f9b806;stop-opacity:1;"
         offset="1"
         id="stop2" /></linearGradient><linearGradient
       id="linearGradient13"
       inkscape:collect="always"><stop
         style="stop-color:#dfa506;stop-opacity:1;"
         offset="0"
         id="stop13" /><stop
         style="stop-color:#dfa406;stop-opacity:1;"
         offset="0.64999998"
         id="stop15" /><stop
         style="stop-color:#f9b806;stop-opacity:1;"
         offset="1"
         id="stop14" /></linearGradient><linearGradient
       id="linearGradient9"
       inkscape:collect="always"><stop
         style="stop-color:#16002e;stop-opacity:1;"
         offset="0"
         id="stop11" /><stop
         style="stop-color:#180033;stop-opacity:1;"
         offset="0.49913311"
         id="stop9" /><stop
         style="stop-color:#2b004d;stop-opacity:1;"
         offset="0.85000002"
         id="stop10" /><stop
         style="stop-color:#3a0066;stop-opacity:1;"
         offset="1"
         id="stop77" /></linearGradient><inkscape:path-effect
       effect="fillet_chamfer"
       id="path-effect7"
       is_visible="true"
       lpeversion="1"
       nodesatellites_param="F,0,0,1,0,1,0,1 @ F,0,0,1,0,1,0,1 @ F,0,0,1,0,1,0,1"
       radius="1"
       unit="px"
       method="auto"
       mode="F"
       chamfer_steps="1"
       flexible="false"
       use_knot_distance="true"
       apply_no_radius="true"
       apply_with_radius="true"
       only_selected="false"
       hide_knots="false" /><inkscape:path-effect
       effect="fillet_chamfer"
       id="path-effect22"
       is_visible="true"
       lpeversion="1"
       nodesatellites_param="F,0,0,1,0,32,0,1 @ F,0,0,1,0,32,0,1 @ F,0,0,1,0,32,0,1 @ F,0,0,1,0,32,0,1"
       radius="32"
       unit="px"
       method="auto"
       mode="F"
       chamfer_steps="1"
       flexible="false"
       use_knot_distance="true"
       apply_no_radius="true"
       apply_with_radius="true"
       only_selected="false"
       hide_knots="false" /><clipPath
       clipPathUnits="userSpaceOnUse"
       id="clipPath3542"><rect
         style="fill:#0000ff;fill-rule:evenodd;stroke:#000000;stroke-width:1px;stroke-linecap:butt;stroke-linejoin:miter;stroke-opacity:1"
         id="rect3544"
         width="1093.424"
         height="1518.2074"
         x="-1174.7097"
         y="-295.40738" /></clipPath><linearGradient
       inkscape:collect="always"
       xlink:href="#linearGradient9"
       id="linearGradient10"
       x1="89.999977"
       y1="180"
       x2="89.999977"
       y2="3.1556378e-05"
       gradientUnits="userSpaceOnUse"
       spreadMethod="pad" /><linearGradient
       inkscape:collect="always"
       xlink:href="#linearGradient13"
       id="linearGradient14"
       x1="49.467354"
       y1="131.00665"
       x2="38.577045"
       y2="69.244659"
       gradientUnits="userSpaceOnUse" /><linearGradient
       inkscape:collect="always"
       xlink:href="#linearGradient1"
       id="linearGradient3"
       x1="46.880878"
       y1="83.455696"
       x2="95.771461"
       y2="83.455696"
       gradientUnits="userSpaceOnUse" /><linearGradient
       inkscape:collect="always"
       xlink:href="#linearGradient16"
       id="linearGradient17"
       x1="99.811668"
       y1="128.53822"
       x2="89.023705"
       y2="67.356598"
       gradientUnits="userSpaceOnUse"
       spreadMethod="pad" /><linearGradient
       inkscape:collect="always"
       xlink:href="#linearGradient1"
       id="linearGradient248"
       gradientUnits="userSpaceOnUse"
       x1="46.880878"
       y1="83.455696"
       x2="95.771461"
       y2="83.455696"
       gradientTransform="translate(5.51e-4,-1.29e-4)" /><filter
       inkscape:collect="always"
       style="color-interpolation-filters:sRGB"
       id="filter248"
       x="-0.060596403"
       y="-0.039739197"
       width="1.1211928"
       height="1.0794784"><feGaussianBlur
         inkscape:collect="always"
         stdDeviation="1.2344139"
         id="feGaussianBlur248" /></filter><filter
       inkscape:collect="always"
       style="color-interpolation-filters:sRGB"
       id="filter250"
       x="-0.087824007"
       y="-0.070953175"
       width="1.1823429"
       height="1.1419063"><feGaussianBlur
         inkscape:collect="always"
         stdDeviation="0.30078677"
         id="feGaussianBlur250" /></filter><linearGradient
       inkscape:collect="always"
       xlink:href="#linearGradient13"
       id="linearGradient251"
       gradientUnits="userSpaceOnUse"
       x1="49.467354"
       y1="131.00665"
       x2="38.577045"
       y2="69.244659" /><filter
       inkscape:collect="always"
       style="color-interpolation-filters:sRGB"
       id="filter251"
       x="-0.10244913"
       y="-0.09554785"
       width="1.1959501"
       height="1.1923918"><feGaussianBlur
         inkscape:collect="always"
         stdDeviation="1.163549"
         id="feGaussianBlur251" /></filter></defs><g
     inkscape:label="Layer 1"
     inkscape:groupmode="layer"
     id="layer1"><path
       id="rect21"
       style="display:inline;opacity:1;fill:url(#linearGradient10);fill-opacity:1;fill-rule:nonzero;stroke:none;stroke-width:0.2;stroke-linecap:round;stroke-dasharray:none;stroke-opacity:1;paint-order:fill markers stroke"
       d="M 32,6e-7 A 32,32 0 0 0 0,32 v 116.00001 a 32,32 0 0 0 32,32 h 116 a 32,32 0 0 0 32,-32 V 32 A 32,32 0 0 0 148,6e-7 Z"
       inkscape:label="Background" /><path
       id="rect21-9"
       style="display:inline;opacity:0.5;fill:url(#pattern5);fill-rule:nonzero;stroke:none;stroke-width:0.141421;stroke-linecap:round;stroke-dasharray:none;stroke-opacity:1;paint-order:fill markers stroke"
       d="M 32,0 C 21.206846,0 0,9.6901934 0,32 v 42 c 0,16 0,16 32,16 h 116 c 32,0 32,0 32,-16 V 32 C 180,9.60159 159.32181,0 148,0 Z"
       sodipodi:nodetypes="sssssssss"
       inkscape:label="Pattern top" /><path
       sodipodi:type="star"
       style="display:inline;opacity:1;fill:url(#linearGradient14);fill-opacity:1;stroke:#b38306;stroke-width:2.70921;stroke-linecap:round;stroke-dasharray:none;stroke-opacity:1;paint-order:fill markers stroke"
       id="path111"
       inkscape:flatsided="false"
       sodipodi:sides="5"
       sodipodi:cx="46.880878"
       sodipodi:cy="99.695946"
       sodipodi:r1="31.183498"
       sodipodi:r2="15.591748"
       sodipodi:arg1="-0.66893705"
       sodipodi:arg2="-0.040618515"
       inkscape:rounded="0"
       inkscape:randomized="0"
       d="M 71.34375,80.357422 62.459766,99.062806 72.83235,116.98559 52.297171,114.3167 38.456899,129.72006 34.649443,109.36521 15.723101,100.96223 33.905143,91.051126 36.048293,70.45444 51.092868,84.683892 Z"
       inkscape:transform-center-x="1.9585319"
       inkscape:transform-center-y="0.28343658"
       transform="matrix(0.75236901,0,0,0.72434354,17.020185,32.96646)"
       inkscape:label="Star" /><path
       sodipodi:type="star"
       style="display:inline;fill:url(#linearGradient251);fill-opacity:1;stroke:#b38306;stroke-width:2.70921;stroke-linecap:round;stroke-dasharray:none;stroke-opacity:1;paint-order:fill markers stroke;filter:url(#filter251)"
       id="path111-4"
       inkscape:flatsided="false"
       sodipodi:sides="5"
       sodipodi:cx="46.880878"
       sodipodi:cy="99.695946"
       sodipodi:r1="31.183498"
       sodipodi:r2="15.591748"
       sodipodi:arg1="-0.66893705"
       sodipodi:arg2="-0.040618515"
       inkscape:rounded="0"
       inkscape:randomized="0"
       d="M 71.34375,80.357422 62.459766,99.062806 72.83235,116.98559 52.297171,114.3167 38.456899,129.72006 34.649443,109.36521 15.723101,100.96223 33.905143,91.051126 36.048293,70.45444 51.092868,84.683892 Z"
       inkscape:transform-center-x="1.9585319"
       inkscape:transform-center-y="0.28343658"
       transform="matrix(0.75236901,0,0,0.72434354,17.020185,32.96646)"
       inkscape:label="Start blur" /><path
       style="font-size:90.6667px;font-family:'Noto Sans';-inkscape-font-specification:'Noto Sans';display:inline;fill:none;stroke:url(#linearGradient17);stroke-width:8;stroke-linecap:round;paint-order:fill markers stroke"
       d="m 98.725673,96.134068 h 22.394677 v 31.733342 q -5.25867,1.72267 -10.60801,2.53867 -5.34933,0.816 -12.149333,0.816 -10.064004,0 -16.954674,-3.98933 -6.890669,-4.08001 -10.517337,-11.51467 -3.536002,-7.52534 -3.536002,-17.770678 0,-10.154671 3.989335,-17.589341 3.989335,-7.434669 11.424005,-11.514671 7.525336,-4.170668 18.133336,-4.170668 5.44001,0 10.24534,0.997334 4.896,0.997333 9.06667,2.810667 l -3.08267,7.072003 q -3.44533,-1.541334 -7.79733,-2.629334 -4.26134,-1.088001 -8.88534,-1.088001 -11.605337,0 -18.13334,6.981337 -6.437336,6.981336 -6.437336,19.130674 0,7.706668 2.448001,13.690668 2.538668,5.89334 7.888003,9.24801 5.349336,3.264 14.053342,3.264 4.26133,0 7.25333,-0.45333 2.992,-0.45334 5.44001,-1.08801 V 103.3874 H 98.725673 Z"
       id="text2"
       aria-label="G"
       inkscape:label="G-text" /><path
       style="font-size:90.6667px;font-family:'Noto Sans';-inkscape-font-specification:'Noto Sans';display:none;opacity:1;mix-blend-mode:normal;fill:none;stroke:url(#pattern208);stroke-width:8;stroke-linecap:round;paint-order:fill markers stroke;filter:url(#filter250)"
       d="m 98.725673,96.134064 h 22.394667 v 31.733346 q -5.25867,1.72267 -10.60801,2.53867 -5.34933,0.816 -12.149327,0.816 -10.064,0 -16.95467,-3.98933 -6.89067,-4.08001 -10.51734,-11.51467 -3.536,-7.52534 -3.536,-17.770676 0,-10.154671 3.98934,-17.589343 3.98933,-7.434669 11.424,-11.514671 7.52534,-4.170668 18.133327,-4.170668 5.44001,0 10.24534,0.997334 4.896,0.997333 9.06667,2.810667 l -3.08267,7.072003 q -3.44533,-1.541334 -7.79733,-2.629334 -4.26134,-1.088001 -8.88534,-1.088001 -11.605327,0 -18.133327,6.981337 -6.43734,6.981336 -6.43734,19.130676 0,7.706666 2.448,13.690666 2.53867,5.89334 7.888,9.24801 5.34934,3.264 14.053337,3.264 4.26133,0 7.25333,-0.45333 2.992,-0.45334 5.44001,-1.08801 V 103.3874 H 98.725673 Z"
       id="text2-2"
       aria-label="G"
       inkscape:label="G-text pattern" /><path
       style="font-size:90.6667px;font-family:'Noto Sans';-inkscape-font-specification:'Noto Sans';baseline-shift:baseline;display:inline;overflow:visible;opacity:1;vector-effect:none;fill:url(#linearGradient3);fill-opacity:1;stroke-linecap:round;paint-order:fill markers stroke;enable-background:accumulate;stop-color:#000000;stop-opacity:1"
       d="m 72.369115,46.180289 c -4.48759,0 -8.636788,0.740564 -12.347656,2.310547 l -0.01367,0.0059 -0.01367,0.0059 c -3.651284,1.575064 -6.720487,3.963136 -8.916015,7.058594 -2.273453,3.145304 -3.38086,7.005786 -3.38086,11.121094 0,5.755846 1.703914,10.911658 5.28125,14.644531 l 0.01563,0.01563 0.01563,0.01563 c 3.423162,3.495995 8.128572,6.175317 14.00586,8.306641 l 0.01563,0.0039 0.01367,0.0059 c 3.786908,1.339983 6.656617,2.612193 8.476563,3.673828 l 0.05664,0.0332 0.05664,0.03125 c 1.84657,0.998146 2.836693,1.969177 3.22461,2.589843 0.443496,0.709596 0.751953,1.684388 0.751953,3.228516 0,2.172107 -0.525431,3.213397 -2.128907,4.425777 l -0.01953,0.0137 -0.01953,0.0156 c -1.397225,1.08285 -4.110797,1.97266 -8.429688,1.97266 -3.13571,0 -6.163603,-0.35613 -9.111328,-1.06445 l -0.0078,-0.002 c -0.0026,-6.3e-4 -0.0052,-10e-4 -0.0078,-0.002 -3.029743,-0.74402 -5.507062,-1.56174 -7.380859,-2.39453 l -5.625,-2.500004 v 16.490244 l 2.296875,1.08007 c 2.49086,1.17217 5.382492,1.99982 8.714844,2.58789 3.347039,0.59065 6.933097,0.87695 10.759765,0.87695 7.675992,0 14.261985,-1.76589 19.298828,-5.63476 5.086248,-3.90689 7.820269,-9.87923 7.820269,-16.589879 0,-3.91993 -0.818578,-7.512609 -2.673828,-10.511719 -1.712117,-2.862845 -4.238164,-5.219636 -7.333985,-7.054688 -2.898227,-1.812225 -6.322235,-3.416655 -10.300781,-4.86914 l 0.04687,0.01758 c -3.391091,-1.286277 -6.025089,-2.472086 -7.808594,-3.46875 -1.647699,-0.920773 -2.56375,-1.826219 -3.001953,-2.527344 -0.430263,-0.688422 -0.751953,-1.699868 -0.751953,-3.320312 0,-1.876351 0.417685,-2.716678 1.625,-3.710938 l 0.02734,-0.02148 0.02539,-0.02344 c 1.068098,-0.911025 3.089835,-1.671875 6.5625,-1.671875 2.528833,0 4.907855,0.292925 7.167968,0.871094 l 0.01172,0.0039 0.0098,0.002 c 2.472791,0.618198 4.713791,1.367894 6.726562,2.238282 L 90,66.145177 95.257812,51.68424 91.871093,50.160802 C 89.173962,48.94706 86.226865,47.992065 83.037084,47.275992 79.740523,46.535947 76.183927,46.180289 72.369115,46.180289 Z M 60.486303,56.885367 c -0.0097,0.008 -0.01573,0.01933 -0.02539,0.02734 -0.0083,0.0071 -0.01903,0.01049 -0.02734,0.01758 z m -2.382813,2.773437 c -1.362513,2.092583 -2.15625,4.559295 -2.15625,7.113282 0,2.731556 0.585679,5.347634 1.96875,7.560546 0.546138,0.873821 1.269934,1.613893 2.011719,2.339844 -0.350457,-0.302994 -0.878239,-0.587716 -1.179688,-0.894531 -1.976707,-2.068558 -3.050781,-4.825481 -3.050781,-9.095703 0,-2.766972 0.644276,-4.760491 1.867188,-6.447266 l 0.01367,-0.01758 0.01367,-0.01953 c 0.143288,-0.202579 0.357319,-0.346755 0.511719,-0.539063 z m 21.335938,26.714844 0.113281,0.06445 c -0.01937,-0.0113 -0.04695,-0.02191 -0.06641,-0.0332 -0.01728,-0.0094 -0.02956,-0.02189 -0.04687,-0.03125 z m 1.755859,1.171875 c 0.113342,0.06908 0.268679,0.135866 0.378906,0.205078 l 0.04687,0.02734 0.04687,0.02734 c 0.295176,0.174422 0.473579,0.371452 0.742188,0.550781 -0.373721,-0.290738 -0.80851,-0.541798 -1.214844,-0.810547 z m 1.90625,1.324219 c 1.348619,1.012957 2.449581,2.075981 3.146484,3.248047 l 0.01953,0.03516 0.02148,0.0332 c 0.912548,1.468001 1.482428,3.483041 1.482428,6.320312 0,2.661299 -0.501564,4.730039 -1.460938,6.501949 0.829912,-1.78965 1.300782,-3.7554 1.300782,-5.77734 0,-2.686985 -0.598914,-5.27701 -1.96875,-7.46875 -0.683235,-1.093174 -1.551493,-2.036054 -2.541016,-2.892578 z m -0.757812,21.138668 -0.03711,0.0293 c 0.0071,-0.005 0.01248,-0.0122 0.01953,-0.0176 0.0056,-0.004 0.01201,-0.007 0.01758,-0.0117 z"
       id="text1"
       inkscape:label="S-text" /><path
       style="font-size:90.6667px;font-family:'Noto Sans';-inkscape-font-specification:'Noto Sans';baseline-shift:baseline;display:inline;overflow:visible;opacity:1;vector-effect:none;fill:url(#linearGradient248);fill-opacity:1;stroke-linecap:round;paint-order:fill markers stroke;filter:url(#filter248);enable-background:accumulate;stop-color:#000000"
       d="m 72.369665,46.18016 c -4.48759,0 -8.63679,0.740564 -12.34766,2.310547 l -0.0137,0.0059 -0.0137,0.0059 c -3.65129,1.575064 -6.72049,3.963138 -8.91602,7.058598 -2.27345,3.1453 -3.38086,7.00578 -3.38086,11.12109 0,5.75585 1.70391,10.91166 5.28125,14.64453 l 0.0156,0.0156 0.0156,0.0156 c 3.42316,3.496 8.12857,6.17532 14.00586,8.30664 l 0.0156,0.004 0.0137,0.006 c 3.78691,1.33999 6.65662,2.6122 8.47656,3.67383 l 0.0566,0.0332 0.0566,0.0312 c 1.84657,0.99815 2.8367,1.96918 3.22461,2.58984 0.4435,0.7096 0.75196,1.6844 0.75196,3.22852 0,2.172105 -0.52543,3.213395 -2.12891,4.425775 l -0.0195,0.0137 -0.0195,0.0156 c -1.39723,1.08285 -4.1108,1.97267 -8.42969,1.97267 -3.13571,0 -6.1636,-0.35614 -9.11133,-1.06445 l -0.008,-0.002 c -0.003,-6.3e-4 -0.005,-0.001 -0.008,-0.002 -3.02974,-0.74402 -5.50706,-1.56174 -7.38086,-2.39453 l -5.625,-2.500005 v 16.490245 l 2.29688,1.08007 c 2.49086,1.17217 5.38249,1.99982 8.71484,2.58789 3.34704,0.59065 6.9331,0.87695 10.75977,0.87695 7.67599,0 14.26198,-1.76589 19.29883,-5.63476 5.08624,-3.9069 7.82026,-9.87923 7.82026,-16.589885 0,-3.91993 -0.81857,-7.51261 -2.67382,-10.51172 -1.71212,-2.86285 -4.23817,-5.21964 -7.33399,-7.05469 -2.89823,-1.81222 -6.32223,-3.41665 -10.30078,-4.86914 l 0.0469,0.0176 c -3.39109,-1.28628 -6.02509,-2.47209 -7.80859,-3.46875 -1.6477,-0.92077 -2.56375,-1.82622 -3.00196,-2.52734 -0.43026,-0.68843 -0.75195,-1.69987 -0.75195,-3.32032 0,-1.87635 0.41769,-2.71667 1.625,-3.71093 l 0.0273,-0.0215 0.0254,-0.0234 c 1.0681,-0.91103 3.08984,-1.67188 6.5625,-1.67188 2.52883,0 4.90786,0.29293 7.16797,0.8711 l 0.0117,0.004 0.01,0.002 c 2.47279,0.61819 4.71379,1.36789 6.72656,2.23828 l 3.89649,1.68554 5.25781,-14.46093 -3.38672,-1.523442 c -2.69713,-1.213742 -5.64423,-2.168737 -8.83401,-2.88481 -3.29656,-0.740045 -6.85316,-1.095703 -10.66797,-1.095703 z m -11.88281,10.705075 c -0.01,0.008 -0.0157,0.0193 -0.0254,0.0273 -0.008,0.007 -0.019,0.0105 -0.0273,0.0176 z m -2.38281,2.77344 c -1.36252,2.09258 -2.15625,4.5593 -2.15625,7.11328 0,2.73156 0.58567,5.34764 1.96875,7.56055 0.54613,0.87382 1.26993,1.61389 2.01171,2.33984 -0.35045,-0.30299 -0.87823,-0.58771 -1.17968,-0.89453 -1.97671,-2.06856 -3.05078,-4.82548 -3.05078,-9.0957 0,-2.76697 0.64427,-4.76049 1.86718,-6.44727 l 0.0137,-0.0176 0.0137,-0.0195 c 0.14329,-0.20258 0.35732,-0.34675 0.51172,-0.53906 z m 21.33593,26.71484 0.11328,0.0644 c -0.0194,-0.0113 -0.0469,-0.0219 -0.0664,-0.0332 -0.0173,-0.009 -0.0296,-0.0219 -0.0469,-0.0312 z m 1.75586,1.17188 c 0.11334,0.0691 0.26868,0.13587 0.37891,0.20508 l 0.0469,0.0273 0.0469,0.0273 c 0.29517,0.17442 0.47358,0.37145 0.74219,0.55078 -0.37372,-0.29074 -0.80851,-0.5418 -1.21485,-0.81055 z m 1.90625,1.32422 c 1.34862,1.01296 2.44958,2.07598 3.14649,3.24805 l 0.0195,0.0352 0.0215,0.0332 c 0.91254,1.468 1.48242,3.48304 1.48242,6.32031 0,2.661305 -0.50156,4.730035 -1.46093,6.501945 0.82991,-1.78965 1.30078,-3.75539 1.30078,-5.777335 0,-2.68699 -0.59892,-5.27701 -1.96875,-7.46875 -0.68324,-1.09318 -1.55149,-2.03606 -2.54102,-2.89258 z m -0.75781,21.138675 -0.0371,0.0293 c 0.007,-0.005 0.0125,-0.0122 0.0195,-0.0176 0.006,-0.004 0.012,-0.007 0.0176,-0.0117 z"
       id="text1-2"
       inkscape:label="S-text blur" /></g></svg>
